<mxfile host="app.diagrams.net" agent="Mozilla/5.0 (Windows NT 10.0; Win64; x64) AppleWebKit/537.36 (KHTML, like Gecko) Chrome/130.0.0.0 Safari/537.36 OPR/115.0.0.0" version="26.0.2">
  <diagram name="Page-1" id="bjdOvTH15Iw8Niaob9cl">
    <mxGraphModel dx="661" dy="380" grid="1" gridSize="10" guides="1" tooltips="1" connect="1" arrows="1" fold="1" page="1" pageScale="1" pageWidth="827" pageHeight="1169" math="0" shadow="0">
      <root>
        <mxCell id="0" />
        <mxCell id="1" parent="0" />
        <mxCell id="379uXCsdajc4Rn9exaL--1" value="" style="shape=image;verticalLabelPosition=bottom;labelBackgroundColor=default;verticalAlign=top;aspect=fixed;imageAspect=0;image=data:image/png,iVBORw0KGgoAAAANSUhEUgAAArwAAACLCAYAAACDWkp/AAAAAXNSR0IArs4c6QAAAARnQU1BAACxjwv8YQUAAAAJcEhZcwAADsMAAA7DAcdvqGQAAPl0SURBVHhe7F0FoBZF1x4MysT2MzB/MbALO1Es7O4WuxMRFVtQQEBQsQO7u/Wz87P97MQOBOn/PM/MmffsvLtvXO5F/LzPe8+d2dk5Z8702dnZ3RZ33XXXRFeAFi1aBF91TJyYL6YovBkNgClL9aF8J0yY4CYKTRD/+PHj3UHdDnK//PJLiFEfep1xpptnnnnd1FNP5aaaemo3lbSBFlNN5aaeSvxTSXuQ46nkWNsG/9fRTv4nIeWu9cG6QD2hLlAnQsOGDXO33X5biFEfOnfu7HbaYUcpc1/+U089jdQH3Kml7FEXvn5QH6TA94+vk0ZCtTEw73w1nmb876Oh857ywVXCGCIejic8ljEeY72ONRMnhLhxFJI2iB/GA2mKcO1YzvEbYwfGeB07wCN+xd+pDSPvCsyDOErLjWUFN4QznkSst9wyZch4vpys/++CauU2QdrV+AnjYxjLDeWV096AqVqgTEJZSPlMLYQAzFVl5QYGuIHygHCro6Iofopc3nXXXbc8tIHIS6AZjQ9bzuq37osvvujGjB3D43qxzNLLuDZt2sSGmJJC/Tbsn4y0HgD4QZ999pn74ssvQmh9mHuuuV379u0zdUDCyeD33vK6aUbTo7msm9FYsGMHYMeUdu3aucU7dPDHPpB+RfbIQ1vmL7/+6v7zn/+wrSoB1lW/RV7YlIhK5bbAAgu4f809tz/2gfQrKpXbpxi3v/gilo+Wh3XVr0iPp2RMSrkBacjfodxajBgxIupdqxK2YNSlPx4L4WfOW9ciL6wZVSBlhnLD1SpcrOpOGD+BV2Pjx41znVZfzX333Xchcn24ZdjNbuGFF3bTTDutm3aaabiiOM00U7up4cfVGa7czOqiNJLA+Q8H6kOufCdM9FfCWIXBygLqo3efPq7/Jf1DxPqwy867uKOOPMpNO22oC3GnkfL39SFXzmGVJq4+oD6a66RByBvvEKbh6qKciXDO8qXHQHr8d8WkjtX/K+WQh7Rs9LgoHCgrTzlGEOZOXVHTcf2br792r776aohYH2accUbXsWNHjhmlsUPGcXExbui4rqtvtn3/LVCh3N5+6y336aefhoj1Yd555+ViQy3lpqubEX+HsmuicptHym2BUG4oI9gScLFaDtuh1vZmx4siP5Ae50H7Wos//vgj0+vymDUs7ayW5B8NMAAFZ8PpCoLDAm5GdcjUGXwetty0geJWBG/ZwMCSxjpu3Fi35tprue+//z7ErA/XX3e9W3ihhcTAahmMrKnZYNHh2WCDkYU2oQ32nwatF1sfaON+wMAtIOfGjR9H/zihiy66yA0cNDDErA877rCjO/yww1kX02DgnUbqAhcg4UIEAwfqxg4gpBwdm1Edts+hacf2HVwtX5Q1wME6hCkB1q+QkOD7+6Co/eiYXgvSclD8HcsjRToGWBeAXykEWCcDyNK5U7ct+MUMMXi/+ca98cYbIWZ9mH766V2HDh04duiF89QydkwjLsbyaISgzZpx5O8CLV+dD225vf3OO+6Lzz8PMevDXHPN7eabD9v7pqlcbqbM/u7lBj8Wad6Rcvu8EcoNcxTaXVG5obxse8sbE2KRahxxY/wCV4H8WUSD10ZMmVJoQUVCgYkUXd2yYeJjmOVrRgNhyi5vNRHuWGms662/XoMN3quuvMotsvDC0sGlkYaODkPLX63B0PJXamgj//gVRVMfaNc6YPAiBFfKYvRi4L24b1936eBLQ8z6sP1227lDDj4kTlY0esMFiF5Bc58ZXLOH6h9bJ40ElKGOg+rnD0UbBmiQL3df3jGeJTuAT8lVUmVYxjieh0rjOfKvyJRDNUyJ5VRj+dg5Tv08ppuNp7Dx0rkUYzoumod/+y23JTQEbdtO5xZddJE4dsQ7dzTivPFRGkN8u5V/mfqbkqHlq3MixlyUI8rtvXffdV9++WWIWR/mmGMON/fcc8dyaxnmRBhvueUmLvBPL7fZZ5/D/etfc7OsMGepLWHvFKftTcsO0PIrc/ELRWvLWkmPK6HFqFGjSj1PAKFFsJ1VyU/wvsC0g8aJH3HURdniR38myWbUCVuu3FiO1UQ5RoMdO3ac67xxZ/fDDz+E2PXh8iGXuYUXEoO3JVYS0UhLK4pq7OoDbGxopqH+U8H2HNo1DF32BakLDBxw+13S31122WUhdn3Ydutt3IEHHshBQ0kHEjzIhjrBMeoDA4hUStVO34x8pOXG9h0GWZ4T4iAthHB9YNAP3OFiQ8+DFyQ/Lyw4iPQ3QGaMznizY3cmXgKb11gOivTwb1IuKWL+o2PmPiUZo/mzYULyz/PwOMur8yjG9PHjxrvvvhvOVbeGAM9kLLjggnE8jxfOWHlLxnT4y9ruFI5K5fbBB++7r7/+OsSsD7PMMouba665SuWGOVHKx5ZbpbtrUzoqlduHH37gvvrqqxCzPqDc5pxzTpab3imGH8ZueqdYyw3jp0IOgxs9vlwN6SIDkCn7ECY+5g+uRYs/R/0ZumpA9nwWSadmYQnpU5AoNO5bROHJxB8LFCSFGTs2XPmlytQC8P3TgfJDQfo6gCvljrIPWxo23Wwz98OPDTN4Lx04yC2wwIK8muV+0TBA5hlXbGDi/tPB+oDL+ijVyTgZOHAxMnDQIHfF0CsYp15steWWbv/99pc6wIVHabLSwQMrDfoGB9QJBgHt9M3wqDTO2PFE48VBUxwdRNHO4WJgVkMXx3bgtsS4cCEzyPEyvTulQtuywo814UBgyyu2+4QHyMuvli8h3rQspvSyyQPyHvMvDsqHc56E+blPXLkALh3D71dwyRL4KSO4anggLi6acYsZd+w++OAD8tSL1q1bu3nnmZfjed44Yu/c/S3vEqHMQjlz/FU7RMrto48+ct9++22IWB9mnnlmN9uss8Vyg/Hmb9GbcpNj9vkwLhD/8HKbaaaZ3OyzzR7sh5LRy1VeuEl7Y7mFMsuMF+KPhB+j+bhxnMXP2iNK8vNCvKNo8eefWYOXAgOsv9Qp8YeC8oYtOvRLL7/k3nzzDV94Eo6w8RPHo1ez82pnhp/cmRSbUTNMuUlp+joJZazlPkHKfcCAgW7EHyNCzPqw8047u1lnnSUaUv72g29cHAzZ0NAuTMNKGtU/DqFPsFakDny9+AvBiTKYPPX00+65557zcevEssss49ZYfY1QB2rgyoWH+LWj+9tpWh8wegNzMxoElCcmsplnmtktvvjibp555vHtPgzOHKhDuWPi8/UhxxKeGsDaP1g3QoAdV6ckcJwOUL8fu+kl0M7z4uUhzS/Lwntyy2JKLZci2DLSclLjgWFhDFBjQsdpkEQIfGBTv5DGx1geLprhfv/9D+7jjz9ievWiZcuWXKmcVgzdlq1gtMEQyd65YzsO7Vsv5qZ0qI5annBZ3jDccKdNyu3jjz+RsmvYA9wzzjCjazdLO5ab3vFEOWExKC4AhXKDXxT6W5cbL7BCe/vkk08a/OD7DDPMwFVe7NlFufGupJSTbqUpam+27NSPMUMNYoRxTBUX4y3C/NhbmgtVDokDDcVEtBg9enRmxEJEhfXHDhkKiBSuCE477TR3cd+LQ8xmNKMZzfjfAQbvVVZehQ8QrrLKysGw9QaufRAjvV2HMB18MRgDejwlQsd39UfXzBASIz+Ogc2fzS8nIO8phRW4fwfY/JO44KALQTI/Sti4ceOi4WvD4Rcm8sWLZPzkPPy6NQqrbVjl/fmnn/h6w4YABsdss81GIxfGGowQGB565w6Gr94lQpuVSmA9xPqawqHl5u0SlCcMXr+lDA+s/fjjjyFmfZhuuum4WglDtyVWd8MqpV+thMHry42rlcEAay43Kbe2Um4zz8SysneKMxdYGDfVSMVYKsYvUBoH6PjyRBxxEdcv7vjy5jgLGawHfw5+jct6MHLojhkzJjNa6QnA+n3H9J0RLgoG2xbwNHrPnj1d3359Q8xmNKMZzfjfxKKLLuqOO/Y4t8bqq3OVgttKsHIhA6x9m4m6HIgDYTxVUlh/YwLjdIp0PLcuAL8Nj+fEweRIrwnHHr977rmH+0M32GADhgGaTurqpAZgRUaB80U8ivT4r4YtJ50XeWczGA0//vCj+/TTT/x5noMBG8ouhMEtyRFiQZfClA/Ho0ePdn/88QfD6wXKrnWr1nEVTNsijVuBPwaFchaaskq7Mlhatty0PoRQZii7hgDlA0M3r9zgevofKjf4Q9k1RbmlrhKgrvjE749btWrF1WK8ZQRjq66kw+C1iwrx7pqQpkfCeBPExvTGjh3rcxtQSjgLFEJq8PJqQK5AT+t5muvfv2HvGW1GM5rRjL8btt1mG3esGL4zzTgjVy+wBYJPcQcjmAM0BmYOyOW33ICisXZyQCc5IE54Mq4rol9OyTQY48DFZHjxxRe7gQMHuq5du7onn3ySFwK9evVy//d//1eWP3WRf0BKAP8y54t41J0SgbIAoax0bvQLQePdx5984l5+6aUQsxnNaMakAB9ewRszcLfNLiiUXH+nDavxutJrjV4dY0qX3DnQSAr6MQCGjs7OjofTxG1GM5rRjH8Kbrn1VrfHnnvwbShjxox2Y8eOdWOExoHCQkA0hILBWGmc1LG2sakaVCfr0tjFoRB0t8YcPpO9/PLL840BMHRh+L74wgtuzTXX5GewTzj+ePfTjz9GOalLmujlY0UU4UoNQV6em4LStPKg+cBKGfLZjGY0o3Hw888/c8x55ZVX3E8//cTV5zFjxpAw9o4dO8YvwIpf93HbsUaRMXjTjq1IOzg7Nvd8eIHwN6MZzWjGPwnvvfee22ffffgE/ZjRYeDFnksMujLg+tW+sHczGENKinSsnRxIdUkpGroytmOMR9hLL73EbQv4iMplQ4a4K4de6eafb36O/XgK+9BDDnUviOE7ctQot8KKK7rBgwe7sWPG+lukmCcCQVacN3xCmbQtWV1TTO5yS9Oyx9TP5IP5bJ4Tm9GMRscoGV/e+s9/3Mcff+z+/PNPb/jK2IvFhrFi/OpbTWj06piDX+ibU+nAoR047dgW7NgBFGIENqMZzWjGPw3vf/CBO+nkk7nCAANv3Fj/kJE3dsWd4FcadMC1Y2ilsbYpkRnHjV400vgXjDYJwztM999/f7fDDju43XbbzT3+2OOuU6fVGCf94cGoPn36uNtvv93deeedbo0113CPPf64yGFClKdy4ZLMaq+GRX2E/i5gCUDnkA+8naUZzWhG0wBfHvzov/+lwcux1yw2wIXRG8cYM6a0GDduXBxV7ABs/YhomXG7TpePR4tVfcaZZ7hBgwaF2M1oRjOa8c/CySed5Lbbdju+Agornq1at+LT8aSwx5f7ecPeMoyvuqe1KZEajTrwazjGcwCGGn8hHPt0+/Xrx2cz9thjD3fUkUfxViI+b/vhfz/kA2u//PILV1mwbw4Pl+Bl83iAbYkllnBLLbWUe+ihh1z37t35ardeZ/ZyiyyyMGVL5pn/MjJ7e/PIIj3+K6ATKS9uzLyIlaZPP/20wZ8CbkYzmlEbsKd3oYUW4pirr0Dzb4bwr5HD3l77ruQGG7wgrGhg/9qZvXq5QZc2G7zNaEYz/plo27atu/fuezgAw+jFy/5p7Iofx3iSmG9zSIzepjbc1IC1bkpcYZWfju9YoT3llFNcx44d3SabbOKef/5598gjjzDucsstxwfT/vWvfzGveJIac8Hvv//OF9Xj/Z34BC4MvlVWWcVttNFG3OeMLw3usssufMPFzDPPhAmG+mgZZAi/qcxxIIX6bdhfAZQVygRGLheAosE7lm9oePPNN0PMZjSjGU2F+eabj5+BhtGL90xz0UHGWhzD2IVf3+LQIIMXy8c0eMXF/oleZ50pBu+lIXYzmtGMZvzzgH2sWA2FEYjXQGHw5YqDDMBcbQjEgVfGVzV6mwo0ZoNr/WqoqaGr51999VV3qYzjeDBkxRVXdI8++qibe6653dbbbE3DFSsp0FdlVcKvv/7qnnjiCb627OGHH3ZrrbUW+V588UV30kknuT123yOUg8w1YaXbXgTgV221V92/CmUGb7idinkRBj/2GjajGc1oWmDcWGyxxfjeZIy1LVu24mqvGr5Y7dVFhrrvqelgBxfEhw+qj3/NaEYzmvE/jVtuvcWNGT06PLQW9pGJIaTvtlQDCe7kgh2vkW5q7OIY++EOPPBAt/XWW7sRv//uhg8fTqMNb2R45NFHXLdu3WjsqpxagBf245VlQ4YM4a19GNAvv/yyW3LJJd0111zj1lxrTffkU0+KPJEJnYJukXRvr0TII0DdvwowuPN0iGXcjGY0o8mB/oa7S7oQO26cjL+42wKSc7gY1beJNWwTWdKZZQgKvmY0oxnN+GcChiMeYvO3t7HqJ4MtBlwYcEIYNzHoKgFNYRjZNEBqgCnRkJTfyJEj3QUXXOBWWmklThYzzzyz+0PCHnjgAb5jF8Zp5JkEwPg97LDDuHLcqVMnbntYZpll3MEHH+x23mVn99HHH0saolMoJ9XXL6aU9C6ivwqadkmXkp8HzWhGMyYL8DyBf4BtnH94DWMwx+Gw6ICf9Mm6DF52ZINS5w4BzWhGM5rxD8bbb7/tB1m+ncG/qYEGHAw5GSu94evjpuNpY0Bl6tis5HXwfrw5Avt0V1hhBe7P3Weffbjt4Pjjj3c33XSTW2SRRcr482C3GKSUB+xzPuaYY5jWf//7X7fwwgu7Dh06uPXWW891P7W7+/XX36B4meFLim8/KNfJ+v8qRB3gJvo1oxnNaFqgv+GhWr2zBop3juScH/8m1LeHl0vD4uKWHd97JgSr+qyzznKDhwwOsRsGbDreuPNGbuWVV3IzzTQzn2zGlzNK+7rghsiCokG1GcWoZxBuLt/GRUPKPuVprpPaoOUGB0/M//DTj+7xxx9zDz70EB+uakpstumm7sQTTnRt2rR1rVu38vt5+QBb6Sli/SqQ7uVtzHpF3jX/qcGI3+uvv+6OO+44Pkh2Vq9e7o477+RWg+uuu861b98+8gLWn+pYq85WBqDHuCg4/fTT3X333cfV5KuvvpoPxp188slut113c/juvv2GPsup4GE2EKDu5EKcE8Mn9pEntDfMiZ999pl79913Q8z6gf2HraXt+C/3TZP5Up//ehTy7eNqvlG2eWVQVC71xP07IG1rKYraIpBXds3l5lFPudlz6Bf4MMSIP0bwbS5NjRmmn8G1X6A99/D6cbdV3M+r427dBi9JOrYavMjI2WfD4B0SYtcHDPoH7Le/W3eddd0005ZeI2G/lczXSYSBDvg7N67GgOY/bYiVyiWNWwlFciqlV4/8fxqqtddayzWV01zmxUDZkLAyONGvFo4aOcpdc921btjNw0Ksxseqq6zqzjv3XNd2uuniw2s0ePUhCgy8YsTAeNEHKaq1j1qheVZ/NHilDL4d/q3r2bOnu/fee92JJ57odtl5Z3fAAQe6n3/5mXtq8cCH8lkU6Varzqk8PVb+yy+/3PXu3dvdcccdfBUadMPL5c85+xy3xhqrI2LJ0IM7hRi9Wr66CKT7B3UR6PPPPnfvvVe/wYu20aZ1G7YXzIGYC/UCiW2Gn6lGefi82rwD0KvWMphcZTUlIG2Hk4LmcsuHxoXrSfzSNzD+/vnnaPf999+xjzQVMLbiE+ctZdwtenD4LzV4MeAfcfgRbrVVVxVl8O40PMWMCcEbvPruSqzuTmWucIm00YXC/keg1g6XVya18taDf1LZV0JRm8wrc5yrJ1zRXNY1QcesCbyNH8aucWKciH/olUPdNddeG2I2LlZYfgV34QUXurZt29DQbSWkryjjE8QweIUwlqnh2xgTaPlk4/OP8fmSSy7hXt2dxcjF6u5MM87ouh18MD8qcf3113NyUF6LanpVOp/KUiA8nVuwunzOOee4Bx98kK87w0crevTowU8Yn3H66W6BBReM5QSyCyA8lnOAHjcVbJ7g55yIvdoT8IYG7B0s3fX84osv3PvvvRdi1wa0h7Zt2nLeaxleqTS1GLvTyryoF0f2IsnmPaIJ8z9FIm1n/7T8NxRNVW4iV/uGjr3w45kGvMIWzzmgjzQVsEWK4y6MXnF1kaGVuLhb8pcavLvvtpvruvkWNHJ12Vlf0o6wqbnCi87uOzg7d9BLujvdZjSjGc1QyBAbPH7gxXiFgRf7af2DZLj1PJ4fy3n0sUd93EbEyiut5M49+1zXJhi8pDZtorELV9/H2xQGL8Zp+EGPPfaYO7jbwe7/Fvs/bjvDnlmUS58+F7nbbr+Nq73YVwsov6KSTrXom8qrBMS9+OKLua/4/vvvp05qqA8YMMDtvffe7tRTT2VZKUEHnRPUr9QU0Pyo6yd0ncz9dgbd6oc3dcDg/eCDDxi3FiAfWGVHm4Cxi8UfzIdY3YUf8yAWgqbCQlAyH+LXjGb81UjHXm8zoo/4sRdvTxj952j36Wef+nhNABq8Mt7CwJ2iDN42otSQQYP5hR57u4973bjS6yeFaPDqwIZfRk/vhnGoGc1oxj8c0SiZ6B9UKA264zh+4Uned9552+2z376M15hYaUUxeM85J+7hLTd4sS/T36aGIaMG26QA+bWGmB7j3beHHnqo23LLLRkuge7ZZ//tdt9jdxrD88wzT+SzqKbP999/z49LfPnll27EiBHM2+yzz853YeKjFDTE6gT0wyeMp59+en6emGO9EF43dNBBB/Hdvauuuiplk7iPNXl3byBA3caAlpGWK+AvpLyxi72K/Lyp+LnCK5P6V199yQfzagXmQ+zZ5cvzMReGOZGLQWGFV+dE5jnkm+XQjGb8BdAulg4h6CN5Yy8IY+/nn3/GcaMp0KHD4jLe+hVebGnQhVS9s/aXGbxdNu7i9tt3Xz8RCEFB39m9gmUrvGGgg174NaMZzWhGHnSlgcZfGHT1tjNWGWiYjBnr9j9wfxpujYmVVlzRnX3W2VylbN0aq7ytaMzQiMH41ip8hALjGlfs/Lg2KVBDTMdp9c8///zu3//+Nz/5i3IYMeIP12m1TjJen+023njjyGtRZCjiCWjs9b3lllu4eolXliEu0gMwZn/++eecyPB1tt13351bEoAimRbQ47fffqORju0XG2ywgR/rhbbddlt34AEHuo026sxZNhp9+JmtbkqAuo0BW6aRJvi3XWAu5OuPwpYGPKQDwqeXP/7ooyChMqDrjDPMmFn4wXxIg1f8mKx1hTddAGo2eJvxV0G7mHSHCOkZ7B8cF8Tl2BvuqunY+8vPP/PDLE0BfNbcj7f+oTV86ZILqbhY/CtXeI884ki37trrxI6Nb89rZ6fBC8IKLxRF5xbSgU1h/c1oRjOaAVjDhK8Fw8ALIxfGiYxZWGmAUdK7Tx93/Q3XB67GAT6wcI4YvFyxo8HbWvz+1hoG4clm8IpBNn97b/DiDTgS6E47rSdvJ+IzvwrEVeSNpxjf+/bt6wYNGuSWWmop9+GHH3KFVw1d8FgZuC2PlV6szGLy6dWrF19zBtQyXuPrbnh1GfRGGYIHBu8BBxzgNuq8UTRwSTl7eTWNWtKqBVquSixfbJGZ6Fd37XzIdjUaBq/fq4j3DdcCtIcZZxSDdxoxbmU+xO1XuPxMapgPMQ/qpK3zoeYbaKz8NqMZkwLbT8TDi8HSRaG3GfFQ6ltvvRU4GhdLdezo2oYFBm9Pmu1B0nf+MoP31FO681vr3FwcSJXExMAH2HAbB5096eDNnbsZzWhGETBeAd44wequkIxZ3uDFaoN/sAifQx84aCDjNhZg8J7d6yyu8PKBtVat+QCbNXj19jSoMQxeNT6Z3zjZOBq8zz77rJtTDN6vv/7GrdppVffMM8/wwbBagFvye+65J7edYYLCWxTatWvHLRKHH3YYt0RgBQfjMeaCG2+60Q0ePJh7VxGG9/x+9NFHrsepp7pdd90Vk0ocuyuN4TvttJNbY401+GEKYLvttqPB27lzZzFyRUYoMzVwldLjSYVO3kooVyU7F+pWBrySDC4upr4dPtx9/tlnQVJlYDKeGa/ibDktL5B0HoTfLwDJxC3n0gUgzXMzmjElQfuKjr1cZKDBi4WG0ewfeBViLaCRih/aOu/4+0UCjqFh0QBxdEydZZZZ2He0z7D/yIWk2pN/mcF72qk9aPBiQsDEQINXJgO4UJK3cSQDmhnt3FavZjSjGc1IgfGKbliJ03GLKwwwTsZ4owTGbv9L+jNuYwEG71ln9vJbGrDKK+MbVng5rslADLcxDV41xpQ40QQ/3qurBu/xJ5zAsRMrrjiXBx1bcf7VV191O+64o1tggQU4OWGP7rCbbuJkMmzYze7pZ57mai/ea4x8zDfffMz7Zptt5tZee22333778QMT+HobaCsxkrEPVw01oGgsxzYTGLl4ZzCMPvixv3ejjTbi5Gffz25XeTVMaVKh5ahGbtzGYOZBvYjSPbxoV1jl/e674dzWUAtQpu1mbkdX50KluM0B7QVzorQdEPMtWUR5NqMZUxLYb8zYyzshoa+gf2CP+wsvPB9iV0Yb6Q8cI9Hup5JxM+xn1wc7MfbQuLV+9BleKJbujKDvcHz4qwzenj168iEEfbBDOzg6N1ZC9IpWFVWqZyDD4Ggh1RB81VErbxpPUU9a9WJS8lULivIENGW+GguTS/+8dPLka7xJTbveeq9VP4tKZQdY/nrzD0xKGdQjR40VjFcYuzDoksK4hRXeSwYMcP369wscjYOMwYtxTcjfYgu3qGV8U2MXpONaQ6H51DEahKJB+cDgxYrudG2nc0sutaR76qmn3Lzzzhv50rFUj7FCu+mmm9LIxccTYGwe3K2bO/mUU9wLz7/g1l5nbcbDxytg8CJPs846Kx84e//9993PP//Mj0pg7zDkQC72E+Pdv/jEsATEtIrG82222YaGLoxuNXj9Cq83cOOcULCtoUhurUjLVI1dfML0/vvuC7EaB1p+cHUuVBdhmLgxD3ICh7EreYSb5lOOgs/Xf2OhqeQWwaanyEs3L56iKfWc1HQnV3mmelZLq6jci+RoeCrX9htQaYXXLzRg7MWFeC3AFim+oharu2HMzDNwadSGlVw1cNlvYCjLMWTwQjnIneyQcUo6rn8AgQSlIomhq2HicnLgZv0Qt0ZiBg3lxSmiWnl5DnvxaozfGNTUaaXyLeXFn9IoT2+lvPgNpZrl42GTcOsFpOHWb6kovKa0DKXxG8pjqVpcez4vXt75WqlWOWoQcEUglCXLHmE4FsKKAQyl/1Vg0lHcddddvJuGVVhFxlAyhhP21+GBMxjLMHbPO+88t5EYmutvsAG3Nsw191xc/cW2CGxTOEWMYBixkD98+HA+jNKpUyd+MW3YsGHujTfeYH1gtXPAwIHu6aefhnJRP6unxR577MH38yry4iGMP3OuSF5DwTSE+NQ5/GL4NjZgOKD8acCD2IY9aXv17de7avimVGv/qJeaSm4R2fQqpZsXTykvfmNRXnpKefFTYrwwJ+SdbyyqV7c0vvLkhdlwPWZYGHu1rdIPwzO0Yx17a0Vp24I3YHEByD3ucMMiaWmh1IfpRWJpz7sf69m3gtzJDnRy7eD4sAT2JXnSwhQXx/AjXihY5WlMgtwiqnYepHGszDzK48sLb2r6q9Kdkqkpy0PLOy33NNyS5bdU6VweVZOnlMZRviJK41neSlQUV+U0KmFAlrGFfhh1Gg7jAiuD8vtfQcboC0Ygw4Ruv+N2rpjaOEW48MILuQ/ulVdecQceeKBbaMEF3f4HHOC6dOnCB8q6detGo/WEE05gGN47vNaaa7q999rLXXvNNfxoBF5XNttss9HYxUovVpmxqjPTTDO5I448kkY19KqkD1ZzsbXhu+++CyEeyFsZL4Oq561eRJlBPh+AnDDehzUmpBnS4EWbRHtlm8VikG+rpTkxtF+hpug/RfJseDM1jNKynFxlWy0N1aOxKMoNbZV+ezEnbRt2Xa2AnIzRC9JtPmb7Ao91pRcGNnXw+VNjl30syJ3s4OQjmUdvR+cuXeGKG/wax4fnE/iKyCLvvFIe9Fy1NJQsTxGlyItTjSzyztdDDZGRh7x41SgPefGqUR7y4hWRQv3p+VpJkXeuEqXtuVp7KzpfhLy4RWSRd96SIu9cNcpDXrzGIDUm5J8Pw09cHXP+F6CGGd3E7sMtRNw+3HDDDUNIMWBc4g0OMFSxHQEG7wFCMGxfeuklfgmta9eujIsHUiRBpmkJBvJ1117rVl55ZffHiBHuzTffJB8+HIEH2GD0Xn31NZQB/iLglj5eUYb3BRdB01SoPw1vCDKy5Mfbs+KH2xSw7dIbu1iV8nMgminbLs6H+VCPG5Ms0nB7XCsp8s7VShZ554soD3nxqlEl5MVvSlLknSsi21byYOM2GYkO1EN+agjXCt2KAKOX2xjiVgZv5MbV3OCqsasru0grGuHoO0HuZAeKH4Vhjd3YwYXU6EXETOEFUli/Im/A07BKNKnIk5lHDUXK2xBZeTImRaeGoCi9evWYVL3z+Bsi0/LAP6l6NTby+ohFUTkUUYpq8ishT35Kk4Ly8UL//TPw9ttvu4UWWogPjim0TNKyGTp0qFtmmWXcyJEj3a233MJtCXhQ7KGHHnI33HCDf5+v1Mefo0a5K664gq8LW7VTJ7dh586ue/dT3ceffCLnIX8qd/JJJ7slllySaeNBOcRFWtgmcengSx3ey8n6FQOyqJ5XX31198ILL4SjEhB1UttFLfD6eSOXT5zj+ZWmMnhRD0KY8/y8V/Lb+VD3K8dz4s+jImhZ10KKSvLykPJbfz1I+RoqRzGp/Bb1lokCOijVijR+PbxFUJmNQXmIbRG/4MZFhjrKDu2dBmvY/sF9utyrK0Zu2K+LlV4YwVjphVsyeoOhq/1EZP1lBi8RMs5CqAFpIdtjkG6Stn5L8aG7QHlxQMqvcouQpmmPayHlqUTV4lc7r5TGSePXKqMovBp/LXFA1eJVO18LVeOvRb7GKYqXdy4P9nyleCk0biUdaiHlVTkpVeorqQwlhQ2zlMoB2X6ZppkeF5HKz0tbQa85/l+Eze9bYvDqByCqAR+VgEGKB6gwJr/04ovcVoBtCXPNNRflfvXll67LJpu4J596yh10UDd30403ufPPO5/vkcXq72233eaFyZB+xulnuBdFBrYn4BPBW2yxBR8YxAT0yquvxGpQfa3ewLLLLutee+21cFQMqeFCGQ0BZCiVjsUN7axJkMyBdk6sdX4ErO6gtI9YqqVfqYxUbh5ZnnrOWdJ41eQUna9GtfDXGicv3FI1OdVkVOOtdD4ljWf5LGlbqKVNKKWyLVVCPe0ZY4Vu6aExK0asGrpq3MKw1f26dGnsBld4kZ7SX2vwClQR+VfyV4EtWC1sWxEZ4pc+8isxhvPzd/44jVNRtpCez6Rh0rRUKZ0iqpa+Uq3xQEXpV5JRj855VCQ7Ty7i1pOfKZU0D2l+9BiUB3s+pVR2Q6gab2yrob2mYVpnleoupTQeeFVmnhyNY3VIqVIaabh4/HEwjkD/SyjKzycff8zP/VYD9t3++OOPfPMC9vsOu/lmt9Zaa/PLaXjVGMpw9J9/ut12391tt+22bugVQ926667r5pt/Prf0Mku7o4852t0sPGf2OtO98KJflZ1+hun58Bnq8dZbb3UX9enDcNyGxBsjtC6KgA9YYBvEX1lXsb2oi7bURPDTYGkOzMyH1i+gLoYA2+5tP1B/7GehH9twJXsuhoV4KrsSadxaKeVpiIyGUKV0GpqPSclLY/GnlBfX1nNax5G0HSil5w3ZdGy6cCcVXJ3Fyiy3JxgyRq0au377gzeOo6EbVpWVCg3exlC2obAdO4XqpQULioUdbj+BUIl8DRE/axdeDF5E4/xXcmLFV6lgS7HxhGOmFeTZNGy4NjLljelWI218lvLiVSLhQTmxrBoiQ3lSyotbiSxfQ2Qoj6VwbpLKE5QXt4jy+EFJvLS92uNayMpRf6SQpm1XLIMcPYoI7QE8aJ/aVkmmDWuYxqk3DY2v+sV0bBqBNA30X41PfpET26+RnZYTw0IchuO8nmPcph3jmlJ2EVgG8lM/gA8g4AMR1YCV3MUXX5x8Rxx+OB9Mw2SBzwRj0gGwAvzzTz/xFZQrrLgCCa9hU9p55535cNqJJ57odRECP97qACMXb3DA2P7111/zQxY+jggOcVNgGwbqC/WusPE0jaaCytZ0cNiU6dWKVIeSfp5im0dbD/1T+4/2qbx+F/ujkPY1laH8MawaId2UJNzKKNPVns/jB4V4lielWmXURBX4q5VHLXqkMnLzVcBbNwkf0gNpG2CdJ+2AFNoB45gxOJVpx2Fbn5HCeNRQlJ7h8lsi+Hoy7umd2pMxdu0WBvuAJ6iqwVuESsZoPUjlVJObKURDttD1peCoRFYOKmmcD6tGjCtEXpGjlaiNK02TYTnp8kle07BS0nTicXjdjcpLSdOK6SREvhr5QeDhRQAasZFhKU+GpqE8KsfKqKaHLbvIj3JogAzliXICv6U8fkspv5KNk8qIlKNH5Jc6tbxWHsNNOdiwWijlI+EF30g3J1z9Vne0T9VLZca6AEmfKWrD7A82zKSbl1clPccyirKCPISrvJTQf0N/BqmMTN5MuWTKKtaDxjX6ybn/BSCflfDbb79l9u/mATLw2jAdg/EpYnxlDSu+Sy+9tE9D6P7773fHHHOsu/+++929996bofvuvY+E/b74rDBWigHs4cV7eeFitRYPluDd7VhRBqSmony4aX6gOybgvwqqD3WTHy6W/iqkZQNk9BOK7TuQ7W+l/pSEJcS+L31O51Ht45X6t44pqgPTNRT7YjhPWRxLSrz2fMqvlMpICeFKyoOxzY7xNk6RjEp66HmS8mhegtxqMkBRjuUPZaF6kKTs8niVn/4kbSWVg3qMYzzqtWa7SHiTMZjhQWaaD9UHLmxdhoNw0BDASA1GK1duYdAa0jd7wcBVYzcavUI0coML/OVbGmoBCy9xQShYlKOd/Eih8vmyYzR2VrAnvgQ5UAwDaUWigkOFxorCX2iEWqlMP6TLig8NKC/NmK5Jx6dl/NAb8lJCuKaRkA2nH43P8GpjtHHhKhWFWxmkJA78KW8mTDtl4M/TQ/1F4ZXyUok3cy6RoeGWUv6y8zl6kNK0wrENV162F9Nu8kjlFJGNy/ZoeDJpo72Z4xgnLQuQ4c9cqElcvfrXtkuX7bfUhm1fIYlM21fgV12ZfkzLu5Bj07HEtECcqIJ88ElYlBPC1a/lo+EMw3k9Fv1wzHjBbWq0wGbWvxAwFrG6Wg34bDDKGxMDygUflMDrw6yx/PU339AAxsNrluaac67on+df8/DjFt9IXADyIANvXRgx4g+uyKAukF5R+dtw6K7Hk6O+ciHpIm2lvxI2ffVb3ZRsH0gvUO38ZOdC2+fQN5U3ykH/CfK1b2v/1jFF00H81G9djZ8hez74Ldlw+hN+HWNsHMuXR+m4aMcpK8Meaxj9hhdky9/yqD/yGUp1ABXlJU8O08SvqF5CvDjGi1/bgLaDvLaANPz4K+kFGUxXZGTahZKkpTpkdDJIj6sBdirGUBqsQqXX9gWDlhTeaiLnraGr5OV4f90Gb70KNzZYkIFefullt9nmm7hNNtmYA7uu5KCCUGHs6MEQ5WftJA4/LWpIJ298HpIVrw3NVqhpiFqpTAdxQjw2CvBDZqCK6eCY6QhpOgkxDuST8s9r49O4DEvikWLcNFypxJvKiMdBBoyZsvOJjMw5PWa8ENfE8ecg1/tTGWXEtHLi5cgocivpwXPiT+VnZCi/0aMkuyQjkh0MrPEbjMNMWB6ZOJBVSivoEdKJxh3PgSq0CSGfF8/HwU2O2Ubhpm04kLZfjZ/Jq+knkfRciKd8UY64kI/+qX2U6TAO9AlGcRh4/xDD6agjj3RbbdnVPfTQg1E+4sNQO+20Hm6nnXZwW265hdui6+Z0t9tuG9et20FuwMAB3IuK+CjLpkAcaMNgCxhvo6NSPjARoOyqAS9sx0Shstrw63AtuYdXMUu7du677/17cSWHpZ/kTW85ooF///33fJevlgNkYHxGGqgjhMEABti20ScK8qDxa0FT1aeC8ps4DQXKtRI0r778/Hh8/XXXuX322ctdddWVvk9I2WnfZl8Chb6lfc6ShuuKHv2UU+pflAvK6d/xPMedJJxhJf6MrDyS+Bjv0rBURirHpwUK8cvOITzLp3I0zMcrycjoEfhVhvIUEeejRA8v0/sr8ad6ZM4HPcr4c+qFJPHjGK91LLx57SCvLdx5xx3u6KOPcgcf3M0dcOD+Qge4gw460B1zzNHu7rvvoqyoi6StbVLbp1K90DEEBEOXLsYaEx7PG0M3z+gFCj8tbKHKg1hI4dvhmJywZ6shnxbG5zdXW211fmcegyu+O2+/mBE3Ioflaasb9MFDD0cffSRvsZ100onujdf/Q0t/yJDB7tFHH3GtWraCbYHYEt+7xUChOMnLGLfH7nu4jbt0YZpYLucVRFJoSP+mm250N988jDqr/KwLpGlqOqPdll23dNvvsCPTYf7COf9PIEIOP+Iw9+23w6U8ptWgiNGj/3RrrrmWTOIHkx9IZaCh7rTzjtQRsPwAZGyzzbZiDGzPYzQoQFUAsFIDPSrJOPDAbm6dddYRPmqQ4QfwXs9eZ51ZUcapp57mllhiiUIZ+C7/kMsGV5TRv/8lbrbZZi+Ucd3117k777wjV8bE0Emvvvpaz29lqCA536dPb/fc88/lyhgzZrSbf/727pxzziW/76DCbtrQhx9+6E488fg44af488/R7uSTTuGeSAtpVdRPadddd2H94lYOz0c9JkpZjJaLwE3dbrvtHtPNy8uxxx7jPvv8c/Y38IVg+tUth5eDvnJ6z9PdIosuyj7Kl4nLCdtXoSdw5plnuNdff41llsqvlA6AvBx11FFuheVXZLoj/vjDHX74oSxntE18unabrfHKK0Z3t91+G98D2+O0nm7GGWeQ8Klk3JILXhmrvv3mWwnv4Q444EC3uow9AwcNdP0v6e8ZGwkr4dPCvc4Knxb2Y1rbtt541M8Lo7z8E8eT/mlhHZdR1naCgX/BBRd0Sy21lNt777354JnWh9YPoGF3yISGV43hIxGffvKp67JJF9ehQwe3qNTv4fgcsKBf//7cltD7wt48BiCK8oLM5597TsbkY9yTTz7FKsT2BrwDGNsk+l7c122y6SZs+6uttpq75pprfP6TfgKou8ACC/BtDfjgBd72gHDGl7Ge/lB+bN80urMrPA0BykQn8DjfjfOfRcX2jOf+/e8Qs3GANjLHHHNKuaCt+E9Ss+3IMedCvoLJv3JJ8wcCtL4HyoXc7dL2l112OWlfU7keMp5+/8MPMq6eIsfTIKbEK9U3jsNfBEsr/BsvhtEGG3R2XbfYwt8+Rpoo05CuLdsrrricb+PAE/RATEKkj5WyW2GFFdxee+0d64Q/sBsZZ53Vy335xRd8zyqQykA/79Jlk3IZQPB063Yg84pDyw9Axj777OuWW265fBkCjCdnnHF6jg6A1+OUU7q7ueeeO8uvQoQBbxXBPIW6CkEBvp7wOj7MU1YHwMq5/7573d333E0ZeTrgDsoJJ5xIfu07+KcyFc/LPHXllUOjHNa9EERWagcA6n+//Q7gvv5PPvlE/Pu4Hj168g0u+uEIbO/Btqdevc4Uu+sy12GxxaiHtk0A6cC454KfzFdqMz726KMhRmXg65Cw5TBu6niKfgJX372rfUNtRRDKoZTHUn7rMnjjACCKj5XOzxUZUf6ss8+WSp48Bi90wapO9+6nSMMZwL1hK6+8ojS0NxjnjCMWkfgT3fbrj2T8enDetTO6NTY+0e22625+f4gQm2QYXBXQoU/vC91dz73jFl5v5xBaOz5+4iY33WzzuJsvOF50lQaCdEQ+KXQAYOUlF3dH/z7WzTU+bY7OPdJ6avf75hu78y+4sMSbyMDV3LLLLu2u2qsHj1MMffZut+Bqy7jDDj+CfLacFXjQZLPNN3XfLT9nCMmi3Qc/uzOPOtFtvfU2GR0s/JeZjndbb7V1CMni5luGuYv6XORWXGnlqEMq44Ybrnc9rhrqfll/nRCSxZxXX+/uu+8BfvK0SI9zzz3HDX75Bfe7tJcULWQgmuP6m9xrr74eJ95IoTwxVBx00AHu/rGj3cjFyp98n/b7H9xMTz/r3nzqGcrQvGCiEA/9MPyw0ohBT4FwBb5ghYd+Nthgw0yHBbQfwl1S2sagbVq6tjl3q69/dbybcZltRc5JXn9LJi9rr9XB7bX3b679/NVXAFOcdPKsrm/fq9yyyyxbta9s93+LuU6jx7vlx9S/b/asGad1h11wvltn3fW4envooQfLBLqiXOweIwb70W6NNdaMbQ+49tpruMJ4xBFH+vLCmBXGLoxbJ598olxYLUUDcNCgQe6SAaV6aAystOJK7hwZD9u0UcMFA3TrjMGLwVm/HoQ2Amoo0B60Tairfhi866+3nlteDI799tuP4bZuAIQBH3zwgZTj1nygDO/fxZ5ebGl477333H333ss4MPbWW399d96557n1xQUgTmXi/JZbbeUOO/RQt5X0dbQxGLWPP/4436f7xutvuIUWXkguVuZ3m2++OdNh/gsMXqwML7LIIlLHa7j999+/ssEr/rzjhgBlonMd240YGVOqwYt6vkD6BxaALrvscrlwud19/PHHYuj24D7pLl02coOP+5Fx68EV907vFlluX3fkEUdJWlKu0r+ZLso0KVdcgD71+Ceu1dQLh5ASxoz/WFrBOPfCy3fGOokUxiJg6aVXcq2nWdxN3WKWEFLCqHFvuL336eoO6nZwmQxA5SzVcQm3QYv8D6w8N/Hfrse5PdyGnTfKlQF89NF/3ZZbdi2U8cjEh90tt9zqFl54EfLFdmby8eBDD7gTex7jFtx8xhBiIF3t/et/KZtjALRpxSUD+rtr7hni5llruhBSwsjh49zwF0e6F558rUwHigryALSFwX2Pcyfv8WsIqR3HD5zZnXTqRVwYePbfz0o/vkqM2st5LqYrP7SNvfbeSy4m9nHrrLOu18PMARyPJkgL4MryeDHYx7jR0o9qNXhh3MPgRV9o1ao1+4o3emVMlbFU+0WewQvomKfjXGakpXI5lA6q3k8G+lmTTQURrXrwUNyZZ24nV5VX8iXpGk69ZHCaqsVEt/LiY9wqS9RPHRceSzn+No4f7Lg8z9vJcJXkWNJs134JN+tCy9RN7dovyYbpt09IGSIdpAkKtyNwbgZJZJkxE92yY8tpmbET2Gn01kbkF/K3fr3+wArtF8+ljvMuwnzY2yPMs5EFGtdmGjdm5tb5NMO0EkcmCGnMxTLGu9lnn43f58+jWWedTfRFOUjcQhkT3Ni55nRj5p8vl8bNMIOPB74cGfADY+adJ5d/9PzzuolSnlr3VoaWJ+RgBWF0Dr+XMZ+bIJ0w037gRxsNbRiEPMNoU1p++RWif5FFFmYc8Gl8PY5hUlatppF6nXcqoanLaLl5wmRY0Db0dlfb6SbIRDOmQTTvvGEvLeRqXkNfQbq2r7Ss0I6r0YJyPa5pYFDD3YgjDhdjFrJZrNmy2WWXXaOxCwMZD1E9/PBDvEi+8cYb5ILjdbd0x46sj6YAxllMXjQSwsBfotLkPLnQfoEFeFehCDoxwLBEGfovoV0tE/+WXLXDCs5zzz3H8sRe3CGDB7ujjj5KjKwLuHqLYoRhfN9997lN5SKi84YbCu9WlIkLjMsvv9y1a9fObdJlk7iajnf2YoVX0wasXwHDDSu8eefyUGu8WgBZJcoeTw5ILw++fKA+AOgDo+Caa65lOSMcxD4hfWbuWce5jVf9s25ae7k/2UdoqARZlAn50qdZ8YFgaLSaegEZkxYso5YSLlpyTKAMlSMUxyKhFk4uCAtkTDvVvEzXytCxWeWAgAXkt2CLBctodjcHZZAnR4aniW4mN3MuPwjn/Hzt9VB+TZ/jn6Qx/XzTulmXbF1Gsyzp7wqmc4zNA4h9bZGW+TKWaOWmbl0qz6g/y9HXTSQ5XqHDmNz6rUbeFpKLPal/jA14CHXoFVe4J594XOgJ94S4jwvdNOwmvpsbFwHQQ1KNaYPkX9W2XAkUIT/KZvn6NJBfzTvSUxdpsjwCqR5KnBnhSaERLCPdINxXDs7huOEZqgeq54piGOAdjTwOYZgAaVhMIpA/FqTIokzkGb+QFEl+jQE2WClHlJ+mpaR5rQTWSWzoqJumkFF9VQ5xKCPko2F6VJZRC7wM3x5TGdChFj0YP8gQhsgH8nrULiOTBzn28uhEmSCgdJw9l5L8YzlVA+Lm1SvDg39SMWF8eV9BmnIENUm16FoNkI2xplXLlm7TTTej/FJ5FtOokSPdiy+9yM/i4iMKWF3H3SRsMcD5JgGMIrPKQFeI4cFYmlxGE7B4hw78vG81QE98GALbir744guOrzCg8K7dk085hUYtgIszvI3h2+Hfug023MAtvsTi/KIatrT17Nkz3lWQGnCXXHIJtzLg88BYYe7bty/TweoxvqIGIG5aHFo+2AqFh+QUPm42cnrclJicadUCbec77LCjm3766TNtWs9NCrJjWGncQN3yHPu3d6shjkUglSN+lVkNiMu5kjySYJCl/LXIiHGDDOjRIBl2XA38JTnVCwPx1HaijMBvqRqsDpo+Kfw4DtcgpxI4vo8bz7vt0003nXv/g/fcSy+/zI/GvPrKK+6VV17mFqiZ5EIYY3NGd7gmfdWtbgSZIF++vrxgO3kX5eDDvS0V4hg+kCKu8KYRQJZZ/SzI4PcWNq6sGpCROqADTd6AI6o1KiTnmUJmGPz2Z85NClSOysyEheNqKMX3fnoU1l8BVkYICB5BDSIiP/MRAhVlAflAtDIZlrcGOTooQ0aEF1yiKsjmxfNoGPy1IMow0dNjiyg/QUlO6VxOtFyAR/sueCiD/vy0GgKRFGWmwDmebwRAvM1Hkf4If+aZp93LL7/E49lmm40G2PHHn+BOOOEk16vX2dyCgf3gXkbj6GeBMQp7GWHYqbGLMPj9eTriCW4joJIhBoMR79hVg7Wo7ADs9X3//fepK1Zgzz77bL5yDKusBx10EF8nBuC9vueffz4N6eefe9699+577vbbbnMbhG0OqPfbb7+d2xlw+3GrrbbiKjFWfGFQ77LLLrxVXw3PP/+8W3nllcNROSrluzEA+UwjuCB763lKQaU6nRRALo0ycfETj/cHKhlV1dMv8QV947GnarBx+QOPko/g3QpIZYRA7xK1y/B+/ZcNrwaNy19giWEaUAWl+Dwwx54aA1LDlPX444+5uef+l1zQnuEOO+xwd+ihh5EOP/wI17t3H24rvf/++0rph3yVqOH6gDfanoFgd44XQxf7guNDeAzzBm9ctIQ/8Ktu3MMLj0JPWH8pESHs3wWNHct9vNiAfP4FF7ihVw4lT62oeQ9veMcagAHHZgL026+/ulVWXdm9/NIrHJjOPqaDu+OpNm6ZRceQpx68+n4rVuQuO+8S0vYTlk5eCqSPh5eGDr3CzYztCXXil8/edguts6O77qwjKJ97s8KAijwQksZqyy7jZpHKa5dz4fnBtC3c6uutzwekqJ/ug1N+ASaYlVZe0S0z76IhJIs3vvzQ7b77Hu6QQw4lnx/Qgx4Bn332mdtyq65u9Iz5E1Sr38a4k0462XXtuiX1yJMBI+TQww7lrbc8YK/ZJZcMdCuttFLgL8/LjTfe6M497xw3ep5/hZAsWn31tbvzzrvjAwV5Ms6/4Dx3/fXX58poIW2p5TffuhdeeIk8KgO3pS0OPuRg98xLL7qxc8weQkqY+vcRIme8e/nRJ8jPtovb2lIuusf19Tded7vuurNbRgyvFFAVt9yxv3f99TcIob69qcs7LDLRLL30Uq7DHC1cq2my+gFvfD2BDyMedxz2iCdtAwSIrPXW7yh9baKbddbSi/1rxTvvtHKDBg0WA3KZsr6i5Qegj+60xJLui6lbuPalxwVqxlstp3JnntHLrb3OOnEsYFmK/OOPO9atvsYa3C+qaZ533rkcp/BQBy7MsZLCwU8I49app3Z38883n9t++x3c4CGD3SUDBoSUGgerrrIqH+rCHrPSfrNW4dvv2b2Y6mpZNQTpeChzTVzxwB7eZ595xu2x554yOR3OPbBAmp5tX3g4DIYsPjF86KGHck889jovusgifAiqT+/ebtFF/4+TmgLtWjFy5EgZG/u4O+68gw9eDh8+3F1x+RWu49IdmV9sZ3jyySd5MQI9Yh8L9ae6oc5gHD/wwAPSjo/jCvFGG/n9l7qPlG3btDf127CGwJYn9MA4SpI5D3t4sV+2MYE2ku7hbcV9vH7vd94eXs0bxwQQJnkZe/AAGbaC4OEqPASG5y8Wnbf+9xh/+OW0bqeddnKHHnI4+xzStn3c4ogjDnePPfaom7pF+fuex0/8hVsVnv73zaX6sXUT3BWWX03yMVbOteWxBWTsvfc+fNiU/NDByghYbvll3czyy8Mv8uvV6yyOq7EM5WfH948+/shtu+02FWXccMNNbuGFFw75QH5Cfwq6YPvUcTIutZnDP8CXgXSZUd+Plwu5F01ZGBkBgy4d5C4VypMx5rcJbuqWLdzTD78QygF5kZwEeVYOHtDGs04Nrf+zzjrbrSLj2b333sNx5PzzL4j1z/IP/uOOO8atsvKqbkdpLzwXzgMYWjAe0XZEX9KH1h57jOerAZ80n3ZasQml/euedmsnTjON9I2WpYfW0EZL+82lnYbi0LJpIYYrRy476NEfFIVflYWxS6saxi4eWMODa0IXyiB45VVXkr9W9DrjTLf66mvUbfBCHwxEqhderL7KKitFgxcG2k8//uiXt7HcjYGLeRKecLWqsuiisaDRyQ9Pt/5LjCG8V1IncS0825AgA7flhn/7ralMSUdcm578wx+BdOS/lyk0+xxzuHnnmYfyudkalYE0TDpvv/2WXFSMDfIgKLjwSjTsqcPT6lq5nr0kAxP+G2++wfixDFShIAMDrTUSUwMPqzrvvf8e+fztGtWlhHnmmZcTGMsJP6uHxEUdffzJx+UyVIxEW2ihhd0MM8yQL0Pww/ffuy+/+jJfDzgSrUOHxdmGivT4+uuv3HfffQ/Ocj1C3I4dl/b84i+rE4mLyQT5yZUhQKdcbLEOlKHlaR/4+EMMgg8//IBxKTsDfwxDxb7/VPMJVw3eN8RwxiQMHRjO9ubjQO6ss83KelE9fDZMXgTvvvMOB5+4p0xkpH1G/uHPs8k//x5EyZPIxRsaZpQ6swYv2jKgeYMs7CH9/fffqCvuCKG/FKUDpGlhhXHmdu3KBjMMtKnB++qrr4ihdgj3nWGvvzeO8QaNMe6XX37hBxX6XtyPbf7SwZc2usHbqVMnd3Gfi6LBy/EMLgyWYLSAoKsaMFpWDQHKEHXOshRCG2A9il8N3ltuvZXbAwYOHEieND3bvvDA39prr839zzBe8eYGXJD279+fBufdd9/N7Qh46K9jx47s9xgjPvrvR9zThwvT5Zdb3v0m9Y10kCYuZDFfoB5heO+www4x37aPwVXd8KDrSSedxFum22677V9m8KKd4oE1tFkavNKGsIexMdFQgxekuqrBi0UYvEkDBi9ev/epzIfoc7w9PQGv6vQXgcIgvKW6BygT86FDGi3Y5+aYfQ7p336O8n2pVL4A+L/99hsZE3+nTAyJqpP4GKdt2+lKbzYAf3DlH88DX3z+ufTR0dRJ5zuvm5eBvoxX3cU6VhkGMFg5x4ufZaL8cCUuttdMP32YY8CPnGK+C3LwAP4XX3zO6GUyAuaddz7Wl9fBlxMRZIyQfjP8u+H5egRgrmP6QQZYMXYqfvrpR15Y+bG+vCxgAOLBT6tDnsH766+/8oITdgDsNl0A4FZKaQci3esZ5SMbXgbEzDnX3K5tm7buxx/xto/ubsQfI1y7drPQNsNUhfnnp59+4puRcDdoLolPnUQX9lEBxJZspPH+ZQdCtRq8qLOWkl+8OUNtQzz8izqAocu+gTEV/QNzA9ppsBltP4kEg1czGzMelERlKSFz7PTiQmF9NRkmzD4XXeSuvuZqyqgVVVd4JQPaydIOBlK9MNhiUMQgnF3RgR+uEBtOaHiBn/JCIWij0cKyHZyVh/RRwwEiIaav6XBZncfB+DXpaTr4wahWw0Dlo6J4XvwWzKvIhAiVR5kB5An6ixMbvULT93zFMjR/KkPDASvDdr5qMvL0sPWg/HARV6mWvBTpAR3ohvqEoCI98EP9xfAA6hDyksqI8RIZKb8SOr010CgmnNO4tULTQHtA/n3bK7Vtq0dWh2x5apqISxK+qn0mgPzyQxu2fQVvHNABRusA8QAtI/aLkA7f7VjQN4mot68DLUM1eJEusvGBGNLYZ4pVAM/m04Rh+9lnn9Jo4zuFJS3oA96FZbLBa/4whl06GCu8tb2lAbIxJtGPvPmkIjRtGLwXnn+hMXb9igQ/gxnGtGmnmVbqA+WYHdsaApSb1j1dU54wMGHwou7xaigYvfZCSqF1rO4TYtAdcMABnHRRXzA8wY+VVpQ3LiZwwY+LB8RB/hZovwDfwID4Tz35lNtn3334tpsVV1qRcwZebwQDGau/2k5YJ0kfUxdvZdDXkW233XYVDV60FdRHlCvnlBoKlKX2Cdw2RVvFHQLk94nHHw+xGgcov3oNXhCAOtO6B8HAwSsaIU/7Vzo/+bi+nQgz5QAcI0KdMA20WbTR4OK8po14APq3pk9dINvopHXg6w11E+pYKK0f5RenbOwBqsnI47cyEFfJGt2pDAhA+eCHPGi4xvP8QQ+UheEHrB6UguNAGlfLMG+eAqrJSHWgvEQO4rKupc7j2BsIYZBtx16VDaGUFfRjWlL/aFujRo3k+M1xX9rjjDPOxAVCHacZN+jldfBpaLpc4YXBW+NbGmYXYxrGLlZysU9Y38xQ6hfeGNYFUrjQQ9upEvMDUoM3JS0odHL4MWhBWVwpYNURxq6u8vbt189de921QcXaUIvBW3RFS/2CUZlWKBqJncA1jm884A0KCFAplKsFIxWlt0y1o/tw3wgikD5IZNq01Y9wxoEboPpTpklHV8Y0jxaaV6u7/A9nPUSq8Hr9NA2VE/nJqP6sDPAjOvmMDuoCLL8gQwcCi2oyyCso1QMPoxzw04WMwK+k0HyQgoxCPXJkqA6VZIAf0PJEnQC5MkKZFMkAS6n9QB8fmFfPtQLpxbYlpO3d6gE/842fJMO0TLo2LyovGrqQJaRtWGUrlB/5squttq8wXZQfEHitrmg/akDYdABNK+qJtJCO6S/0YxA2+WFc8MkP0HJg/kI6HL8w6QvpuDXoUqzw1mbw4kHZww89zOeXAzAGVxlwdZWBg7BfdfADs1/V1XDyoNwwMIeyUndSoHUYXTNRq8E7x5xz0mCE0XnkkUdGPkDLTo/VveXmm90JJ57Ivb9YVMBX1HAr/1GZqIYNG8Y3OMB4BmHRAwYw3j6yySabuF132YXv7L3ySn/XD+nifZpDhgzh2I40tU+w/kwZ4BgrymuuuSbfaQr5tRi8/k6dD6PMQA0Fyg/EcT24XOyRvGKVF3PhGMyHQng3qs6Hfp4cxy/JYUWsFsCwxUoW5r9aDF60G5s31nuof6sziX5v9KZ9DjyeWJylcgvlai8wtf/xPH6maMGvhlNJtoTLD9D41FkIshluhQiUH8zQWQE5qQzqEUgR8xPzVtIBgAy6ECE6VJMBqB4qBzLID75QTilq0cPKSHUAKsnI42e7D+EK8OTZSDrep/IVUXaQb2VTTyGEZcLFr+Mzjv0/gQjW8b8hryXDBTbaXxxzxcD1Y6rvE3hrEsdg9A1JH7Yk4qHtYqzVuSPqC4OXjRQ5DgUE5VAQxx5/nLtUJoWmQL0GL0jBCgw6q1+NW9U9nWTxQzwAfKw4ARuLmURRaWqEYuVKB1KND/gGgsZSGkjsoKLpabxsWuXp6EDCgVwgLBGQo3kFZU4C4IMcyAXJTwFeusKjMsBPV0C9lM+SkQFATiojg4Qf5ZmiSAb84EllkHL0yJQFA40ugU/Lg0GJDB2YSSKrDImMPB2AanWiMuxkbKkabBzNa9QbJOnrRZcea7zIK27aNvQUogoXeXQQ1MHR9hlND4CMtK+gzXJgYV59uKavfFZXO/BWSsen5V35F9KSNMLgpbr4+HQygCjI9XkTYwUkhgiMbRq8o2HwDqr5wxN4v+6Rh2M/I1Zow8BrjF3uM2slFI4xlsXVhzCWIQ/pmAaaFKDMtA3YNgm/NXjffvtt17VrV/fyyy9zH60irStAZTzy8MPukEMPpdGJ1VwAt5Vx+7LLxhvTyMVtU4zXeJAN783FyuyrYqiCH+M6eDeWuHiDA8ohr25VBwD+o48+mk+Fn3766QzLM3i1nXHsxE/apLYLSw2FliHbT3AxYaP9wKjVW7N68YRJ3C4E4S4DVoNrQUMNXpDWFete+lI0cALZfqbzE+MHPpAilpv80MdTY1fHMo2roIwgk3qoXJBC4mfqR34hmGB0Mw5ATjwBhIh5Miwy4zt4lR8IMsAb5SQyrA5RBk+U9IjpQw7KxIjQaNX0iPyiB4Nq0UNlGP6MDuFYQb7QJrQd2LEX4lRPjW/l8ifi6Fc9wzlNU88hHzEsxAVUB7Q9LDbgIpF7eGs0eOsFnvVoI/3GbnHI3J3QzEr5MvNssKFgYqNrAsR06wAKV12S/JgJIQ54UuDsmEK08OFioglbFLjXI3X1PMP8lQEKxw8qJq08CoMs0uOgwFu8pfRsWkjHpxXcwEd9RW8M4iKURAMJhEOTR02LlQc+5cdxkBF5oZscewplEXgsRX4h6gQZSLdMToiT8JMCP0nipfw4rlcG9ciRwQFYZSCuuFoeMSzw58tAPku8KUEG5agOOWWBH/mVJD50sHqoDJ9uNn7ajnxaWUIa+uOxkUE++E2YzYNSWh7QRZhJmheco77cmgCSSTUcI1zbsO0rOK99hWkFXSjXUK6ukC0u+YO8snRwzHOeSv3F1DvLxNcNPFr+IH/s82d1oaEOfyhP+asZiEtdRG/cXlND1l+gy4U6ti5E4wSG7rTMG/ISdYZ++NWTcA3QPKrcNA0c4wEwfCyid+/SV9KKoLwbbLABjV58bQ3bRrDKiz172O4wf/v2rtNqq7kum2zCj1Es1qGDW2HFFd0rr77KcsD2BXyV6ayzznK9evViuaiOUb9wbPHOO++4u+66yx1xxBEhxCONB8Sw5BTTyIlfL1QOiHWHNiWu7y/SDjCpiou8cVWf9e/bAOLUi2o6qy7qV2T0Q1+HH2FCbHskP+5pn0K47++lvsd+Jn72SRyLPzV2NS0lHFMXTQ9pQAZ5S8Rj8EA/8ECWEPhAXveS/mUyQlhGBliDHJIc41xmjhDi+GNkMLxAhtUhQ0FWJkzigUfzACrJ8XFieoZ4HGRIbK9H4CvxZ/XIyAhhpKAD82hI6wXnMHYqP8debQMYn8TVMTeOvYgHCu2g1F7ERf0iDWkXmfxAD5alTzurR2iokwH+IzF+NwJc3crjL/omlN7Dy5+4CIxXAQ0wShsDabrsUAGxIkGoaDQYKVhfoeIGf7ZTo1IxSWWJnVpIKzpWMGSJ/LLGZYhx1K+dPExwuekxDZ+W1c82Hh4LxXTgxzmmEdIRKjW8wM+4Ib4eM0w7uz9WGeAvyfDhOB8HhkSOytC4pbQthfhGj5gXlQkZ4loZDclLqkdZXiROzAtcpaCDymCdx7Q9cZDRtlVJhvhTHTzhWOOGeCoDgwJ+tg0LSVBVYlz8xKUsyvdyVQ+WA9NX0nihPBAP51UfuKEsGBaOfX8otWH2E3F5zHAYxZ7fyor+PArnoJemg7JiWkE++0Twa1myPEEhXqZs9ZwQZZtjEPKs6ZGPLuLCEJAyQdnXCDxAB14auunKrhg61tjFeR1XmCfVWYjtKtR7PenXCpUZ5dP1x1hlvfbaa/maMgXH/pxxXnnxZpWrr7rKXX7Z5W7VVVfl+16xtxb7eGHQ4hiruFjhxT5f3IL8v8UWc7vvvjsfPMPqruoS+xZU5D8PPY+VUzzUhi8NYiU5DxKTvNRPj+HqcXAbC6obdGe7QpsSF3XL+o717m+z+gsgPD3uPy3blFDdLPniMYYu9MVYAN3j/AT9S/06EvIk4b7/I74fT1hv6G8h79qWlSgb4aQQRkJ5KYX4od9aviizjL9YRi3ju/JzXMyR4eMXyBB/efphPIpxQzyEGbLn8uX4sBhPeSwhLKNHuQxvoxgeIW0H5Av6+HEwHIc69e0gjKmob9sOhHSs1/bieZW8DJXDtJN8qB4g+efdAOtvbOgdFjV2cWfPGr1+7TmMdxz8sAQuJ3iLU9wpBbYAM1Rm9PpCRwWXKhNuqYIiacWFePQHOTjWyqOhYtL0A3eIJ4TKVn+aXoZCY2G60mgpW8JjOoHK+BCHhPgpmTiJHJWlfj9IwPXlpvypjFRe9MMleTlZytcj71j1AJX0AJXLsMcxHC5J+ZRCuI1rZChVluHPpTxKVl4+vw+3PJm2CjJtqRKp/iCGBV62vxBu9WBZIm4s06weyhP59Dj40SZz+wzCIIPtF+TbcBwIAz/J9hX0yzJdvaGr6cT+EMKyaZXOg4dycM5QlI3+FPplmh7Osc2RUI4oI78SXCsQ1ZaHruTBuNX9ZHrM86o7dfB8sVwCNTbyZH7zzTfB57hCi9VWbA/A9gM1dqsZvXBXXnklN2TwEBrL+Pz1jjvuyM8D41VnMGq32WYbt+eee/LLdniV2K677spb8uBFucP14orzfuGFF9KA3mOPPaJOmLzw8GEej4YVyZtUqK6k0Ldi+wt1y7pOjF60DcRpKqhOFhldhbQfxD4AXWHAiI6+X4X+FvLAPIFMv6NhFfijrNDHJJVS/zZ9rpRm4Iskx2kcc2zDS/zlMpSvEj/95E35Q7iNV0CqA8qjjB/hFfhxTolhcKvIKOMxYRq/SEbk0bqwFGQxvrjZsdfzsh2A9Jy4vh2AfFwNVyNY0y2Nq4ZC2mmbBDU1uM2IW4v882a6hY42rYwnLUaPHj0x7kWVQKzs6sNpJ510ortiaH3v160VVV9LJh0zFj4KNikwHRChs/p1W4Yel8Lh4nTOoI4fxAb5IFQa/fLjHyOUA+XGX0iHugjxXEgK5yknAKI44Ya0mJ40jgibVKIz8xJcq5P6bToWKkP581BNBoCytVB5mg/6K/Cnelh+RUPyAn8qo1Y9GksHwMqyOmCypGvSSFHpnELlR735V8qDTV9h9chkx0eN/CnJP/zxvIKSIAMyE2IblnPwp6C84IJsn0Uf4rkkHbpBlO0v7JvhvDpFgHyMZ3Zc4+0uITyIhS+BXdz34hC7MvB+3ZNOOJEXArq3EuT36nojB9saOGkE4wd+nWg4AajRZPLTGED+1LVle9NNN7mjjjrK7bvvvlw5xf5QhB9yyCE0IvHKMegCpLogXnSNP3hjfWXiBais6OIn3piGuGmc+++/n3t38VActk9A3iOPPOJOOeUUfvUNK9OIix8n/FCGqWtpUuHz68mWLdsU2hPbFG6hhgk2PLyGSRefXcYX62oB2hMuRtCWOBfKcevWMh+G946qMQ1CPjEfar0prK6qL6pIjnLC4ffnLFC2dOGEMsyUK87jjxFKgFzvKcmMYQbKp+moE1GFH7BpRzkJIMPyqz+mr3kpQDUdgDIZ6g0sdcuw6tQoI+YHzComhAHKB9eSbQM8rwkaUDMVpekYN9dv9CBErO4fxgIq+4b0E+zhfVT6dlNgqaWWYh/S8VnHYjxbAcOdvUYznBaKFsiUAC1YLVwAfnRIJZ1Q1EgG0WgmmauXzDnxJ+HayXVgzaP0vF4N2yvomKb6uWpm0sKqFGRx1ak8vXSCVH9czUrOqZyUbJxIht9SHr9SGpd51jyIfFIOn5LGy+NPKcPHK1ofxnNJXtLyAFn+lHg+yMjToVpeLH8kSd/KUn5bpyo38hjSc5VI40WeoItSXl5AVu9IpjxB5EX7lfaZ9plSmMRRf04bjrKrULyVBn7tG0GuphP7isYLxLLIy4+QxtFjxI3HNDhDuPx4bAfnKkBcpOnzi3Sglyf0eeirxi7zgXQzaXt9oVNjQ2WybNQvv+233979+9//dp9++ik/AgEDGGP7BRdcwPftnnzyyYyrsOO/gvKMfL8P2svHj/0OFMpW88s883yIH2SoLAt8Ue2www7jl9lg7L733nt8UK179+5ckbbGrspSAqyr/saCla31xzaFuhZCW43bANAGcCsY2wXkXGOhKE8It/qBtA6Qvu0jtn+zD1NXT6XwUr+L50L/BuX1OUu2jafnbDji5clieJKPihTGsJTSeMy7zQfSsPETOZa3EuXyJONqNSrjB9UpA/HVr+WXV4Z5bUDHXoQraVvQ8Te2BT0nrsqDG9NMdJbuyvAI628ijMODpXy41BPtWCE+HC3jWrxM5CAXBzzx0uDNruhNKYgFHMgWcqyMUHnq90vxukdJJyVPGjcllZmmkRLjSqNTHrgq25LKjYRGJW6UYWSmYcrDYzTwkJ4Nt8eVKMpI5RbIKDwn+ufJycQxlJ7TfFTjR5iGl8nAuSAnE5bEKzzHjl0ut15i+kFWJlzkpu1UjxtCyq/6qkt/QXnauJY0THnT+EVtWM+TTH6VtxIxntExLw2QyrQU+Y08S7llBaOL56xR4Ikjco0AH/WQ/OLTwUrTqqELnXVSEL/ebqRuIb+avlJTgbJDfvE6sMsvv5zGJLYkbLjhhu6tt95yN9xwg3vhhRe4X9YvbhSvbnh5JcKxlqEawNxPqJQ5JyR5V94oLwD7fHfbbTd+zQ0fysB2iS222IIPzOH96tgyQRn4gQ1+JYaVqLGhMm0aWqda395FuwjtILQLxJlcyNMT6auudEP/tgTdQaX9mtl+B147LsSwArLxlOy59LyeS+OklMeThltKw5kH1JE5V01OXpgly2+P0zD12zh5x+rPC9P4Sva8unlx07BqbSDaRklbsHLUTwrjmj2nbS+2xdBHJxfG8y0qY7lvF3dhSNimG+78Z3olDV0YvPjBLR4D/3JoIVpXyRZ8JFSOJcTBoBz8tsKsjNSfhlkXFBtFml5BOlZGHlFWoLxjG6bH1agWGTaOJT1fKV7eOXtcdF7D1J9HefGLworiq99SGl4UT6ne+E1FSFfTVr/VJT1OyfKUUZU2DFIZKi/ti6A0nvJSTl4aIBvH8KlMUE3QaMoXAxhUF7IrmZgMsM9fXBi6MHREV1xIQ39bRkp16V0nVHaGwmQDWnnlld2jjz7iDjzgQO61PfbYY7mlAx+j2Gefffje2ErIyJW8iCcSt5wYsud4PiEF3ue7995709jFa89WWWUVGt/PPfecO/DAA3krUkG2VAbFl+Qp8sIaCk0PpHVIlwa91HMwpPxqrzeCfbuYNIMXc3BDYC9cinSPbTPtc6Hdpm3X8lcjy2fJns+Lm4bpsYZVOp9SGiePP42TUrVz1fhB6fmUp5qMovMalp6r9RhurOecNhBJ4llSXnucR7btTW74LWzYoVCyYdGXvD8xeAE9gYiIOjlQStOnR9ccV0NayJZsBVUiGzeVUQQ9b/nVLaKUB2RlFVFRHCunMcnChtk4lhR5YYANs3HqIYu886C0PBQ2rBaqxlPtfB41FvJk2jBLirxzeaTttBJpvJRXKQ8arnGsHEtpmMYvojxUOy8ngqceBJl0oRv0xIqf+OXYTx5CEifNR6qPuo0FKy+TFv7MMfTbcccd3EsvvcTVVDx0tsYaa3DvqK781gortxqlgHGN/brnnnsuv+KGrRUPPvggX0d23nnn8XPFGRk+I/TH8mQ95FNTIC8dkNYxV/Rx8cNjH95YyMyLdSJPZ1DUO6E0jj2uhVLkxVGyyDvf2KT5mdT0LPLOW8orVyVF3rlaKOXNg55THVJ99NiGp2GWlC+lKQXedCzZsOrXk43XKxsCq0wAjxleUrYaNQSVKmlyV2At6U2qTuAvklGL7FrLuVK9aFieLpX0A/LkpTy18ldLq9p5oJY4jYlK6eWd07C8c1Mq8urYAudtnErx07iTDClCrOphBRNGbmmFJKySSBlzQvgLJ4e8tPBTfUAS6GaYfnp3ysmn8Mtpn3zyiXv22Wf5SeStt97anXHGGXyDQyXkplOBFKgPGLYwsvGZUnwYA6vMPXr0cLfccgu/yKbxIz9+KHfxxzI1YaCmhqajBD1Y9yjTzKq/nIcr57jSXSMq5SG24eBquy6iPFQ6p6h23kLl1SLXolI+U2hZNxVq0b9S+vXqlxe3VhkaR+Pb46ZAPXVahFi+urqKxVMNE5oc0HRsepleacuvicoyoizLpjAyBSJeG25JkXcuj3C7zFJenDzKQ168PKqWjpWlsOeV6tG3iCZFhqLSuRR58dKwWikPaZxK+cuLP6lUlJ4iPZ4UWFnqzzuuherlQT5rbTt5SM/Z+Hmk6eWlqfyV9LHndPzIID2uARgO/WSjrpAYNXBpiMHQET8MIQ1jeIjb1MhLg2nDCMMv6AGdxIM/N/988/NNDdjj+/rrr/Ndum+++aZbaaWV3IABA3IN34bkBeX/xBNPcG8u3rqAj1Jg/zA+hAFjW9/Vq4i6wk2NXSFWRoinbjzXxLBp+Xov1TUvflTPEL+poO27iIr6kA23pOds3CIqQnou5UupWpxa9QEp0jB7rGEp0jjVqCE8KaUy9Fhhz9VDKTTclmVarjhWKoqTR1a+wp7PI/kXYjY9bF9VlF2G2kg2YlMiUxj0i4Mf/OpWIK0cW3FK2NOhxHcLJ4TPRfp9H+H1GYY3TSePbHwlpge5QjENk46S5U/9lvLClJSnUhxQLTLyzoH0fFGcaueV9HxeXA3LO2cpjZfGzQtLqVqcWmXkhYNq4W8s0rTS9IrC9Zz16zFctl1LoQ3nnbN8Kq8SpTIyx5pOQnnxa02PpOOH7unKjCdhAKoJWeNK/mWO0zCF9Tc1rC6WoHp5GFycasHVXbwODF9Qw5fO8GEJPEy2zDLL8LVmeHgMr3KrF3g7xMUXX+xWX311bl3ARyzwFgZsWcA+3W7duvHVQVEnQdTRK106rkJ/BfL0iG+oEP+kAm3UugSnSNuGs4S+kUe2D0VCH0v8efFUbpqWJRvP8uXFKTrWMEtF56uF22PrWtK4eVQpTr0y8uIWHadx7bH67bHGU0rjaFh6Tuu5rE0UkMqyVBSupG1V/oWw0HaFr6nALWa8CPWEbqh9EweZ9/Ai8xjY9N2C2Ft15VVXBlGNizPxHt5Oq/H9u61bt+K7B/U9vHiRN1yslvAhEHt1n4AFalwCBYt/8CbnM/EEKlPl4+fH2lJ66qaALCVNM00HruXPyM1JK0UqLw9RXgUZlfiBSjIs75SgR1PLsHyTIiPVI09WvbBpwq9UhGppR/4gQo6iPOtafvhJOe3XxrPQdJRsmML6rRwrm2nWCJHOQTkO7jK24T28eGfq6D9Hu/6X9K/5Pbyrr7a663naafFdqa3wrtRWeF9qa75/V9+Tqq/t0Vvekxtp2SqhHFDHWibxHP0+HMdY1e3Tp48bOnSo22mnndyMM87o7rvvPhqveKgMxjA+NYy3P+ALaygPzBl4r+93333nPv74Y+4FxqvGIGuTTTbhV9nwlgj98MWSSy5JHQHWaVK/PAzhIK6eihGpbc3OByCF9U8OoBzZvuRibRyfDpe2NWYM3zP62WefuXfffTfErAy0pznmmCPzHl60LxzzHaKYE/H0/LR+LkznQ61L9XuPr1NF2XmB9StUpsrHT8tdKQ9Wfp5cQHmLZABWTh4mh4xq/MCUIMPyV5KhpG0iHgdYP5DqRfloBDzwjqIw3fBmBB17aVeyf+A9vH/yjk9TAO/sVltS+098R7qMzWUfnvAGr//wRO8+vd3NN9/MguJHB1BQIlQLjAUl9Ntvv7sRf1Te95XizNPP4CSiH5yA0QsX36XXT3fy1RjhKVgWuilcn3Y4EHjNsrophRP4ywXFBvl5g6n1AyqTrvzpKy90ItGEghNBEUGWEtPjiOLjlIFJqLxEoIBylDlPRmCpJoMuBDSVDEDYGisvVXXwnnJUkQFMaplGPYyrfsD66wXS0vTo8i8/LzF9ZKIoycCfMYIo18uzYqPaIT9FfSUPVrZNS/7hLxdRlJGPNC3y0qPc4CItUGbQlfENHweo58MTfzeDF9AyLqK0HvAlIuWDwXaa5Pfll1+mi1VabEPAl9Y++ugj9+WXX7pff/2Vxh3yOsMMM9Bow77cJZZYgm+FQFlgf+7777/PvcFdunRhfdk6s8fiE7+4SbsqMnbJY/yTG7FtNaHBS2MXbUsM3mpzodRkPGZY8Kvr4/ljgIfyE2khBOUZXFPOdo7SdNVN00n1UES+IKcQUUwpDwrqo8xVZKgOgMpRHYCKehgd6DZEjwoyMmXhPfkQllp1sHmzIF+QA3/a530cOhEUpToiHUMapog6JIBNxP6BcRdGL/qGjr2jx7gnn2wagxdjDz7agn6D/kNbUsYhLqDC4JWBfyJvZxhrnCSdWL+MoUrys23hSzIIg7U+Ro6HXjnU3Xb77SHJ2gCDd7XVVqNy1iJPJw90Np08tHBtI2DFBb+6JNzCDJVsKQ92EPX7xkpX0RxsAVuvIgayAR30+HLjJK00PcqLckWgOVayUP4ieYDlK5KRylF/EW+tMhQpn5UF5PGmMgDls3IUtciwfHkyAOW3cixS3jx+da3fQvkiofHgL5GVHldDTJN/pTzE8BBH5Wr6qV9hedGGxYO/eAGnpFB+tFl/21bCTF/JS4MwMtO+wnQRxaSjsDJJ+EE8/5WQphllQX5IQwdcGifjgsE7YIDr26+vj1sFfxeDF9D8WzdDZmy05Z+u9gL4cAXe1Ys8n3XWWVzhTcs7BQxhvG3hxhtv5BfesFUCE47lU39arzwOxHYlP/4l5yz9VUDZ+bY1eQxePBzJdmXnJKkm9C1A6xdgvQa/rVM9b/0KLUstV/bxsEeZx1ofjOQdpO8d70G6Ng0glauwfsDqZP0K5Ve+PP5KruVrLBkpvwLxLa/6gVSG+i3yeFMZlhgWK6UE4SaftlU5iGMiz4s/lasuSMd5/MukFdwiaDuAi37BBQfYkSDpI08/9VSIWRlo+2ha1AVbFKQN8hWAZjG0NOZOE+46+T7j+w6+tjZNHJtp8NoCwcSAbw/rBIHtDTpB0Pjld4qtwTvWDblsiLvl1luCirXhjJ6n0+Dl5CETx+eff+4++PB93i5bZZVV46fg+DUP7svwnU4rB3vMPv30E7fYYh3cCiuswIrEKVvBjMtwf04HBgtWovxQmHLAdEjwSyHyfCCFl2fSMcv3eZMGoOlAjBoJOoDYJ441HeXVdCDUiItgdMOnrsLKURnQDRAu7xoZKT9QJEP5gVpkqByVQa+RU7OMwJzKsPxANRmWH4AMumgLAtRPHqIMf0A5kKH8gK1T1jP8eh4O2EvRa0NIR9PPtnF/DtB0mP2gg5aFuqo/ZaG/B1m+PVdvw9o3tB3HPAb5Nh0lXO1DHO4mMUzS4fsSk3QUNj1dcRo1apR7/fXX3DfffMtxCAMdBjYMdB06dHBzz/0v8qIv4g0E2JM6YsTvvm9KGliJXKD9gm7OOedwAwcNdP3692f8asgYvG3b0tiFf0o0eBVapizrQECp3ZTGRBwXtSeEX3/99VylXW+99fjg2dxzz81zFpjYrr76ar5uDFsZYCjDkFOkbUPrFv9Y13WQwvonN1BWujikBq9fGGocgxftmqRzoWlT77//nvvyy6+YFnTAZN+uXTu32P/9n5txxplYd6g3AHqW6rVUtwwL0HKU0qWrxgXSw6vWtP9ZAqJs40e/9sd0CEZPeAErR1366TIookhGCivDH9Px/MGj/HlyrC5gVn4FWYKMPF00fZWTyojRC2TY9OlP+AFGT/itDAX4dUxXQ1ePKdq0A8vPhT9QqHeO7/J74YXn3K+//eZWX30NN/3002d4fpNwjLc//PA994SjKaE9Y7yd+19zZz69jecCakFb4Vc9+No/MXJ1ew/GWvixiku/GLf4EJAfh024xsecJYar5B0FIIURjDY+LII9vcHo1dVervTmGL2DLh3kbrp5WFCxNqjBi879nnTePr17uznnmpOvpjnxhJNEQf95RihsJ1N8A//888/j072zzjKLW6pjR3fsscdRJvLxxhuvuy+++FJqUvIkYb7R4Ky4ksfgo4sK5F+QDVpi8SXcwosswjR1tVfPKSATn7/84IMPxI+Gg4aEdLxfKSTjkaSz8EILu8WXWCKkgzQQp5QGgBfFjxo5KupLmQZzzTU3jX3KxC+RgfK47757qQdkePaSLPAtBD3C64C46gwYGdiH98QTj+fKUCy99NJuvvnmpwz+gsGo+G74cPfiSy9WkNHCrbrqKm7WWWdjWTAkycunYry89fZbuTI0L+uuu56bbrrpSmUBGBlvv/22GEEfGxlWB0SdihN1UXkCL734ohv+3XAjA6ElOdNNN71bZ511KCNvFf/nn39i2/XIylbgKfm5pW5TID32VUn03nvvlb46jkljIOPZkB+k0759e7fUUh19ugV5efyxx/hO1NIVv5eBthzleZEezA4FSZ5auNU6reZmmXVWPxEjnYK+gvz++OMP9Hv52X4CQjriC1xIAYn59JZbbjkashhr9thjNzEwW3GvVlsxPFG2MDSGD/+W+0Z7976It9NPOOF46aPvupVXWpljCeIhnR9//FEulp9yhx5ymHtX+jD28daCv6PBC7Bsg6t+X9fBDeWu5yOFOIGFcbBP98ILL3RXXXWVO/jgg/nQGfIPYE8envmYRcbks88+m9+0t+0AYNtApdKv/0oXlrGfmLpPCbD+vxIop6YyeNHGcYw2BYOX8yHKR+jIIw93b731tltllZUlflvKQH19/sUX7s0333BXXHEl902PHDnSPSuGBeoOf3ac8PUaKjcC5Voq3wXaL+AWk4tI1Eu62muBN3x8++03lAnZ2TQc927zzgAqVaDzg5Xz7LPPuBG/jwgaeX4FvAsttBDzlM4PVgZeeYfIKoP/jR6Yp/DQJHj4CzIUmOv+HcZmlaF6qAzYLLhoTvlVj2+//ZYfc7F6pDLwzmuWo8oQoF4BxMWWIVAqQ/mnn3460WN1XydBB+YpEID4X331lbST/0TbjjJop5jjIBNpiCD6IAJyll12OTf7bLOLrgxwgwdfSnsCrxS86aabacNo/EceecSdemp3vnJw+uln4CIlZGDMwHi7zz77uq222tovkkr/wJ2jWgCjGvlEecHYzRiw4rYMRq0auLw4lIs/rupiLOY5Tyzz1OBFIdDolTDbmWHcYkmaRi4M4WD08tbgwAG8fVUPYPDi6WAYMZddNsR1795Drg7edj/+8INMVieyg+vXa7RiP/v8Mz41jH1ip/Xo6S6/4jIawMccc2yovInuzCMXdU+/0cp1Wmp0SKl23PdcG3fIoUe73XfbnStYvqP7yoYfQBpAnz693RVXX+PmXHJ1HteD79553s2/6qbulgtPYEPH5MjGGhqcYqUlF3cdxk1ws40PAQZvtJzKLb3RhmL8X+grEvyJDNTfMst2dJt0zNfxyQ9eddvvvJM7/PAjSvyJDKySbb7Fpu6POf3AmqLt8JFSF6exMSu/DkqKp6TBd+t2IA2wPKBTDhlyOQ29Ij2uu/5ad9a557iRi3cIIVlM9/Y77v77H+TKk5YHYGWcc87Z7qpbb3Z/LrxQCCmhhZRV2/fed6+99obPg5ap4QcOOHB/Gs544jzFL7/8LPSLdPBnowy2XRkw9PjVV191O++8o9tss80DVxb33HO3GzBgoNtggw1DiIe2bxD65pLSNtZbZCrXZtqsfsAzn4x3G3fdkf0obRviEGjGa6y5mJtnnnEyCeQ0sCp49NG2bujQK92yyyxb1lc0PdV3jSVXdWIOuBlbzBi4a8dXE78RA+ocXsxgIjnzzNPdrbfezqt9QPMDXCoDMgzrY485zq2+xmoyOD/AlV/9vCSNkrHj3M033+Q++PADuTiZwV0y4JLAXRmry0TX87Se0SiZkrc0pEAdqJv61fjFfFeaBEvkz8EfvPLDA2zdu3enoXPooYe6xx9/nCs7Z555ptt0001Z94qMX9uf/NNwbSuR8DMGUUoaPiUAZcd5cjIYvJy4pU2NHDVSLuhWci+99Aov+FhHQjBm4e/R41Q3S7t2ckFyiPv6m29knNnEdVl1VEipdjzxWiu3zXZ7uKOOPCrOUXYsA9Q9/PBD3cMPPe2mnXouHluMmzDcTTPV7O7FV+6Odajzg63Gjh1XlppvJf26fIwYM/5zt+++e7tDDjk0yiBpewpYcqkl3ALyE8k+wOBT94k799zz3EYb+Vfg5cn4rxiZXbtuLhIW9AEJIOOWW27jXWiAY2tIS2U8+NBDYqMc4WZZspUPSPDT26NlDni9NOcnOgB4JeCAS/u7dh3KZYz+ebwb8/sE99LTr5NXdSB/kKe488473IknntCg+r//+TZycdvbrbnmWpTZt+/FvLPWr98lbqeddhAdB/EiRNM7+uijaOzCDojjB/qG0GOPPSblNsxdcEFvjr/oH3hLSy2YacaZJI+STykvNXZLK7qlMRf2IgxcHKOvRGNX+ODGuxQweEsKeqOXHRmThISp0QvjFpuP7eou92NIB8cqyfU3XB9UrA2n9+zpVlpxJXf+BefzM5KLd1hcCuVm98OPP7rjjz/BZyLs00Cl3n//fTLxnSUd+VC3ww47UAYqAQbv0UcdTf2h77nHLuZWXmKM22GDkYxTD067fCY3w8KnuF133Y0FVJrIfUcnJA2gz0V93NNfTnSLdt6Dx/Xgv49d58aM+MXdeN4xnLj19hEbvxDyAnReail3yU9j3NxSLykebj2Ve3bbzdw5Z58rPNLWDb8Cdbf88su6t07Lvxi59Knb3O/zT8fVriIZ2DayyY5bu287zRNCspjlnR/cOfsd7bbsuhXzAUGpDFzh4QJh1112CyFZDL3yCnfyyd2lPazo+YwMEMoDt1RPeeQB90uXzoEri7kvvsQ9eMPNYvD6K3grQ3Heeee6/sO/ciNWXTmEGMhkNe95fdwrL75Mw428oTwsDj30EK6+4vZ5iu+//87dNGyYe+jBh5E8+dl+QAxowUEDeuAKOQ8HHXSA23bb7dz6628QQkpgG5e+iX66wnJLuGcObu3atszqB1zzyjj3yezbuOOOPT7qoWWh+YGsTTft4Hr1+sm1n7/+V04deNDscqF5jVtGDN6yvoIk8E/SQFNeWy64FptqYTd7i1k9cx14Yfyr7tBeR7q1117HffLxx+7+B+7nBRpg8wPcfPMw3nXZf/8DONE///yL7ueffnI/CvmL+PGuVctWboYZZpTjcdyKNWDgwMBdGX9ng1eh4wpcSzFM2hV+gBrCCFe/HFiHF7K33367m3/++aXdHsSysZDa8a5WUfCgzrRs6A8GEKJrnabE08GdUsB5UmhyGLyc8GU+/GPkH26VVYzBa+Zs1FWvM89gDWIO/UYM3gP23sS9OORbn1AdGHDb9O6LiQezr+m2wmj0JtWAr+Y9+/gY12qaRUJICaPHfeRGj//IPffCbVLnrOBYp7Y+l1tmTTdDq/XFOC4fI0aOfdntvMfy7qADu0UZaD9pe1h66aXcvi32KwsHHpnwsNv/7ANd5w07F+rx8ccfuT223N1tP5W3L1LcPGGYG3zTZW6RRRb2fEEH5Qcefvgh1+vyE12HXduFkCz+fdK37uWXXqUORTIGDRro7nr3Sjf/hjOEkBJGDh/r3r/+F/fsAy97HqFoPKvhG3DnXXe6Fx843PU94ucQUjt2O2NWt9nO/WXcW8N99PF/3UAZJ3HBMJ20uU1lbO0vhu9CC/tyAHbffVeOu8sttzwfaIX96Lt/CzFaZ3QzzjQTF0xhQ6KPvPDC8+SrBixYIH9o+3EbA966IEavjrfcp8vV32AMS3w1dtFv7LbYshFZC5+TdfCjcjihSWPne84gBAqIi4TYgBoAKIvVwQUXWNAPuAiEqyS/kX/8watWGLeDBl1KY1cHYbjCIH68ZcJ3+kkFBzBMjkg/yOTKByYDDi6efNqTBpXN7RCalqFqYDmAP+jaNDKq5zPKCPlIZdRSVtgO4uswX4YEhJjFmDBRLs4Yv+F6MC7yU1gn1WXwjSehPCMv0kaYd2I4dMpSECIoP+eZUdbVANlWj/y8TBomjA93g0IalBvbEvSsTddq8Cu0E9yCCy3kDpELXgycw7/91n344Yfutdde4xfD8KWua6652nXqtFowbie4Qw7p5g7qdpA77bRTxbA/w50pxsAxxx7ttt5mS/f8Cy+gKP9R0MlJx3hOAGbC1dU7ey4TR1zx4I+09lpruT69+7gjjziSxr+ciT8/d0g8NS5y5NEPYzfES88rqc7/VGg7lV7lpp9uOrfCCivyjlmf3he6Swb0F2NkgLukfz/X49Tu7oknn4j9m0bHJADjjfbptH+zj2Mcg1vDmAg+PicQKOoYqBqoC9IuGJdrkcF4Rka5nNrzUaQHx+gq0HF50mQgbsJv6sbXT3U5laAvM1h4oUW42osLMC/Xt0UtQ6QDglGMlfhzzznbXdj7Anf++edz3N12u23csGHDPB/j1z4n6BjB8YH2J2zPcPElhiwXRsUGjQ+xYeyIPGEsCeMaZQW5Hhh48NOBJkRSl1YyEgyrkgyDQMRtIFLetIqGDbtJJrYP3I03DnNLLLFkLNxYmVr4NmxSIXLShsc05Ed/I6XDvdIyKFFykBll15RGSU9EJ68hNK5q8LxK5TJIVaD86ByeJeEHVQE7r8RLZUQ3xKsExM2TEakGKeRHmWqdlFGIWAGqB6Jb8DgJZBoJlN+iSGYlKE8c/IKr/kkFyzm2PyNbID7vNkY60ozV6L2w9/lui66bu6OOPtJdcP557uqrr3SPP469yCPcqaf2cGuvvXbgcu7AAw4SI/had9llV7hLBw2WC+bB7orLh7r99t3f3Xkn3ioz6br93aDjrY7xSjqW63hOkh8mDnuO5wNJpDCZ0FsiCdMDlV2WDiYkxjF7d3NIdW2GB7oTFn523mkX7mufeeZ2fFfy7LPP4bp02cRtv/0ONAAQcVK7HgwTGj3S7ziGmL7O87H/VE9I+cAa+WNY7fw6tuOf5QdVR1YGeQJvrTLiczpBlvzzx4G3NhmBJ0eGUjUgjs1HPoXIDQTrn3U/Ad3U+4X8SarNdOBBH91g/fXddddez+2JGGvRTjH2nn/+Bbz7pnrVAzsWWKMXY4b/yMTUHIu8349LfowJPPgFfiBr8CbQSMqoQHAUEuI0BCq/EnAlg/c4brppF7fGGqu5Nddc3a211hoysa3JFZ2bxCBeb711eDsJhTlhYgt397Nt3C2P109PvtbKywjGF+pGKymPvn3raffFSw/UTd/+52nJmchAq4GP8uiJhLDfpHjubzOVu791OT3SamoxlksDEH9l+lK8u/P1p3Lp8fdeZlpoxMUyJrppR41zbb8ZkUutfv6zUAbgZTg+SIgHCvPoq6++LpaBY7rOtf74E9f2zbdyaRo88BB4UhmRpK+2fe+DXP7phFogfdWBlPALYf/6f956Mzcf2GOKl2rH+FDa8PJYgL3qd9xxO/dYgeBXeu21VxkHiHyB5B9lwD96nHN3vT3e3fnWuDJ66P3wFoQMeXnBQ/+IEVO5hx5s6x58sE3d9OEH00LDKBeuyk1Jhkn35cRv3OcTvqqbfnK/SCqoE+f+++GH3A92+eVXuKuuusZdcslAd/55F7hTTj7F7brLrm65ZZejDlgFA/AgJdJHWKlPT+SDVX/+ORrB/0jo2K2UGpx+wsDkgfFdJonE6NUJR0kNYCV7royCocvJK4TZNO2x6vOPRmikbMeCH374wZ3W41TXuXNnt/0OO/DjIDvuuJPbdttt3Uorr8xXwmHLDtu6/L79cWrX75bp66Zhj/ntEvyZjqJ9yBLmoVHj3nIjx75aRggXU6kUn/IoKOYNroysbtTY13Nl/DnuwxCtJENXN60M4DX8JpbTF/IDb9Eco/Sr/PL4Qb9gLJI4JTL8Au937pcPRrsvHx+RSxovV4aS4PvX/szl//LJP9y4Pw0/ElR/QnLCPfJS69z6rUbPvglbiMpSHy9PYf0e2How62yzhSMfnzxCeIgN22AVWVm1IY4FHA9KY5UPsseelCdFdg8vFfQrN2gYSliF5D7ecWNpWMaH14RGjxnjLr74InfNtdcGkbUBe3jxlDf2K2GpHIRXm+GhteN0D68Qbo1hVRlABkp6TnT9+vfjOw+POOLI2JBhNLzyyiscMDUeitf6LVh8KJggG5va11h9daaJfSP2lWgKxMMToY8/9igHeHQ8XUUrpQOXfwS5RYbPwwS+1mOjzhtTPicQTirZNC688ALuP0T6kATR/p+/2uq49NLc74nz1JENgacJxOne/RTqGPkBI2OttdZ262+wQaGM77//3l10UZ+KMrbcciu3/AoreH7kMZGBfZVXXXVlsQwpj7323Ju3rMFv9dByf/7559xdd92VlREFeT2OOvpornioDN2SA6A877v/Pr4OBedSGXLEOxfdT+1R0gFu4IcfMq697joarDjPugaCCx2wF+/gQw716QcduB2I/qnc559/6gYMHCDHvk2ngIw999yLX6OK8gO0nSEOtvmg7ate0EFjI96qnTpxxUf1SMsTwD50fB1LZaQk/6JMgJwSV+PjydsF2rcPDwX4uz6oH6SngK54KPWj//6X58CHMMhGXnwacPkX4dMC/0S33XbbuQ6LLe7+/e9n3BVDr3BH4kEa5gO5gkqMTcw000x8mGKHHbd3HToszhVfjDGIgWcO8FDhXXfdyXMwevGGmVqQ2cP7N3pLQy1gXSeukj3WCmKNhXOA9Su0TqKLGsCfHCsxPPFbd0oH2jGoqffw4kEdzBNoW6NGjnSdN9rQbbH5FrzjifCxeHWoGBR4TdnNtwxzZ511jlz8LcvXR1177TVMQ+sv1p0Qfvhj5/A1hMKP5Q8Zq6++Zkw7Pvhj4gB4ch9jPADZSnq88MILu4037uLHIfDiJ+yUEeRcf/11NOYVqYwVV1yJX/pTGXFsD/wSyfUXewBjCuQzd4mMzp034gNn5Iccq4fgJ5lrr73u2lx+AP4ddtiRn8YGv794y+YDF+V43kgCogzAugcd1I3jg8+HkRHw4osvuudfeD5XD7i4YN9pp52jDrQbICuUjcZ799133EN4c4XIUZuOstBuVSZcz8F45A4yNt6oi8zJC/rxDLKRntDmm28mZd3fLbRg6aG1K68cSvtty65bupnbtSMP2uXIP0a4R8VOwutjD+52iPQRbzcij7UAedVnufS9uv51fX685ZjLPoI4fuzVtopjlk+w4Vg+qcGrFDszjN1ANHSlU+PBNVUck+7FffuyodSD1OCFi1dV4J2Z222/Q0Zx7WQK6ii63X3P3dRli65do87WKPC3QTGxhnCcl3MWbHSSFgqG+5GRLo6Dq5UMUsTyQbmIG8tIygZXu9ijg/Sop5Dq7uVgMhTXpMPGLz9tuETglT+vv3iQJgOAEI/6Q25OxwEPoI075l9lABK/kgyAV9PyU/48GeCnnAI9yFIkQ+IivlK1vBTpoe2EuuBXRQ+Q5QeD6kA5FfJiB5A8GVqeqFO2Lx5TWEae9VeC5tc+pKLtz+oBlzJDOqV6CemCvEDGRXn6tit9BXLZlsvbMKDy/N6pUh+xT8FqekxLoLpBLh5YyLghTZsOkvJqehk+TZRfC76+EA8vetFefshN9MAI2H33PdwXn3/OCxy8hm6MjBEQrPp2WHxxt+4668lF+tVu4KDaDV48b4Cxqu100/1PGbwKrWetC/Wra8OlC0VIaPCVIDWnHu+Euszz57l/B7APCjW2wQtXPzyhBi/3J6JNSfl8+dVXfHE/XjuFfqrliVdu4SFSXPD5+Q41E8bLoKuG5c1PdIUwbqVzVLr4ozy2XWiambFRoPHJKz/Oc/4EwzWe18m3J8uvKJMhx2WAHkLpPKH6Rl3s2B7OEYZfeUEWqkc6psLPuIGnkgwtx7JxWRF4VAby4oN9XshrykLnPiVNk2UglI69OsZLpBhXeeUfywdyaTSKbNooCBf/1Vdd5bqKzTXrrOEBQwlHOniWAu+HxqsusajnbZ2p5YJnEb7OTapV0sVbGsbUZfBiMYWvGZO+0BIGr4y3GGf9mCtjb3hQjW/2kvCqBm9sXPzzhWQLCoYc3PgRChi+5rVkffv1c9fJFVo9sO/h1Q6uL9nG03bxRcGmsAGtHCX5J7pC66zescGHsNjRAw8qCWAlmspFQaGDI00OMFpQ+AkL2YMcGAr6zuK0MeE8Or7CpkP5mMSlIpgO5Mt5bbTUUZDmD8d6DtAyUblUUKDhyu/5vJEWwwOYLih0nFQGgDK0Miw/oDJs583wIz75USaqj5cBV/lJRo9qMmJ4gMpoiB6KWmXk1QncEr+vEzUCcUxx4geszBR55zQd27ZJaGvyg1/jKb/qoeniWM9ZeXrRBr+2YZ24EEeh8pAv21fsZKh9RaG6qa7oK/pxG+0rsV1KmIL64oc088rR//NugM2butyDKPI1LYxfMLQxdg0eMoQfn6gF/zSDN3WLzkn1FkPrKQB+PU79Cuuf0qHtenKs8PIdpNLPUDw6hqAOYt9C3+Gx77c4TsftUhyEe378AKmNUCe+DnSOUkNb+7r2b60mysFP5YY07RhNuYGH/qB/WtfUx+iscgGNm47LuTKinNKcBzC+0QMeK0PTsvzQQcOAjAyUheFXqA4QkLE7AuqRYfVQGRl++FE3Kkd+CvCgTkg5Y69tBwqvSzDIhfTOndZ9aqDTnwDydF7SxRRNG30EuwJefOGFELsysFUC6aIN6vgKO5GGrRx7e1HGXCGs8uLLvbAddQxWou7IU2rwasdAgdxy66385jEbL8K0M2ES4TEyMoHvJf3vf/8bVKwNGYNXjd7YwX1m9OqSiiYVycZgSP5F/XDMPEFH9SNecC0oGyQVlzF2g58FZSqYgCwRQ0MXaZjGFNPTNIV8I/IyII8GLtyQjm2wFsoPWYB2HkDLw4uVo8BvZWheoY8cBHniDTIAyKkkA9DyqyTDGqmpjGp6gB9oiAxA5eQNhqmMSMxTCJefxPQHgmp6KEEA6oThQQfIQXTyhXotMjoVqXw9Vj/TCseaf2v0al5UByDVg26Qq4A8ysSgFGRZP4Rq2gD5hTiAiFtrX7G6oq/AOOCAK+EYEDUdT5496iuUV4ZAjBOgftVZ84Y6igOuHOsXf2DwYntJLcCHJ07r0YNj1P+KwWvrFrDlpkjDyuKUopYjVE1efRW5FnlhUxK0TU8Og5eTuBgfuvcZQB2g79v+JYFs7zoPRpJz4mTCGaAw9aD9GH0N7dn2dQn1UUN8QuRAB8iEDiqbbgDrEjID5fUN1YukcgysDOVnmIHya1n4Y7IRKgP8ymtlKD8JMkKYBeLrOJSXD0DLgbzqGtgxWclCeW0+fDjV9/GFNB86Pvp/IaIgto0wruvChrYRygdUsKAk0+fTj/devtUbUFehemv9MU3pF3B1h0A9ryWrF2utvbZrI0YvLtRgR6LdZu5OWIMXBD9XLsU97rjjZFIYHEQ1Ls48/Qx+eAIdHJ1bJxB0bFrtQjpxYEJlaSuoq/dW6tjMV8ibdkhAXa04/OxVTDqBayUrSmn5idROqkhTr240HcCmA3majjYonKexEKCskGPrJ54AQnxtoJqGheoBghwfmJWhvJST8ANWBknlKAw/gM6RQmVoXuRfOBNQhx5RBgPL8xLLoxYZCT9QqTwByKhUJ8qr+cAkFY/FtUiPi6D5jemKq4OZHgPwR5kmTa0TPRXExX5iDVDKlvbMn0YUQA5+1fqKxgWomxDTCOmkA6+mU5ZWSA+itA8inXhefgrEUagYyE3ThLGrt9UuHTy4jg9P/G8YvLaMrV+Rdz51gegvBWVh6kPbQuoq7HEt/ikF2qab0uDlvkW0KSG946ntCnWA9MUT5zccw0XfEifTt0rh8PtzFravsT+DJAD9m+2ZJxHHkyJNL+qAAIHGhTzyhnQI9TB+jr5Cyq/p1iOD5ROQ4QdZGQHgBzIXBgJ1LX80MhU4iPG9HkVlYWX4YzoRyq+8qQxLtl5ScIwVPjveqp2idcZ48hMJ9FNcqCvUmdopesx0Q9w8QBbkk8wCB7fDcnfAmJo/PFEv8GxUm7ZtMn3G3o2cKhYk/sSNioKk0psSvoJ8pdMQ1AKFcsHPRgVXSCcRKi4WOwwJZIT7N7CxWTPH2z/ewudKcZiMdEKyfhK2T+AY/CqDS/khrZB+GWFLAm/7lNKM8sS16dl0qFdIB+GsDCE2qkC8IgFJOTANq5tSSE/Pq05KuhoA+YjDuDkySMgvGjKNmawcypV6iHoIHwfBMhk+rVRGRg+JRz0SUt1QLr4sapCBNMVVXRDGdiBx8vJiZSBemR6QA0I+IUOoWAZ0LcmI5WFksA2DL8gioa0b4tABXZXSXwiPPCpH0oBr6wTEC0X1ww150XzY9oUwLU/VPQ4UoQ2XkekrOCYf8qpyKxB1QfyQDuWYdNgvg5umxy/s4FjTpc6eEIdyI4VwjR/kgUf3HmN/Gcr1nwAd4y1hfFe3iGy8lDBfkIpgzqW8qcw0PUs2ntI/AbZt6hgg/6IfxD4lbVn7nY5rvm+EfoA2H8n3JfYn8+L+SNq34Ud8hvmFJ8hHOuovI4RjrBO90M91bAR5HcSNcXUMKsnSMQl+jkkYK8AX+EkIC/GLZNgxnnoEHaKcHBmWfFgYF0M+VA8S8+FlIF6Jr1RGnjBml+Zuq0Mqg/kGfyDVw+YjlaH8Ph+lMiijcI5pglfaBMdY3jUAiUwdg4N/Wl5klcZb8PG8qcOS3lnSfCMO9ESYd30elL+pwGfLxvhtt3pHz955jynLUOIHmDDIwCJv0sEFnVZ+FhKU6dAkNCpzzMIOri94pVIjZcFKBWkhZzq8Vp6pRFYq5IX4NERQcQgLlOoQwzVd8AU5MS1NT/3hPONJOHT1MkryLDE9uEEX8opuWVfOobHBL5TqxzC4iCPnlFf5ecw4kBP0yZFhG7Pn8+UU9RDSurB8VlY8l6OHdpKUP6U8GVEXnvdlVikvOG/zYvUARRk4DnLKqKA8vDzwy7mEV0JDQ0/IQo59+oEgS0jjxnxKmOqR5iPVo1KZ8hz5fdsvDW5mYIxh2TZMGZIW8xrkRblI2xDDJB7LCryQIxT7iqZhJ+GQHoj5pBv0NJSmnQmHG9JH2j6/iAe9fJHXCuTj7wYdw9VYLCJrZFriq6kCRSOX3hp+IlecEo+RVZaO0cHqVYmmRDRVE9G2Z/uUkrZ7HdfYx7Q/o/0HogEs57QPI47OTfFiEucYV+ZPieP7SoliemGcsemThDeOjSY8bxzKywPDSZpO6VwtMrTfl8kI562MNF0bpvypDB4zf+V8qTzGwbgFN/D7cC/HylD+PBmpDj68xK88ZbzmGPHt2Au9tL49mfoHTxhvo50islKdiyjG0bYDXpD8eF78TQWuII8d4583g7ErxFVt2LPicoUXKLn+Vg1uAXKQa2KwICT/WggsFoSFAoNfC1I7GSsghGkDB9nG4Tu2VCIqLJJUqLiWOAjQFTKVHeVCB9VJSX5ambEBaXq8avJXTpqeT6OUDuLFRgW3gKiPIW2opUEl+BMee5wJE9fzeLL8lq9IBsMjgVcpnLPxUj5zXC7DH9t4ValMhjlnqCxt6xey5dFQPfLKNCMjtGM/YIQ21ECSpufbn8oO6XmC35PVo1J+SuWQTJTaJ0yfKWrDVn6qr/YTm1baN+MKA47lfG56IKbp+Zk25AfZecR4IU3WAcOgq+djeTYEMLhoxU3ZsGO7JTUs1biMRibGe/yZuIU/G6cC8dZw3k/OiROJhrDyqD6JH2SRHv+vIW2fsV/hF/xl/Qt+tvlSHygZNEJYsdU+FVb0/FxVIva90M9s/2bfCWMZxiGQ6mP1YFzVJfiVbJwiysQ1PHkyvJ6ebDjPWRnBb/lTWTYMrhLPwVW/iVeJrKxUByUbP6WyeHCDX8N4PtSL1k2mbYR6QTzOCfBLfD++mjpnO/C2i7YBjrdM06fNtAxRpxzSc2qLkZf1wwZDPZoKWNnF1iJsW8OeYRi62MLBhVz5hc1AfvDgIIgBCm4YaJoK7C+sGHVD4aCQYsUl+ynlnDUaGF/issFLobKSAvmKzIb5FauEpIKzt1C9XzuQpud1C0SDwodl0jYTN8jeos2mERqZEBuPpqX5NBTTMOnYvEb+0LBTXm30iKNGhiXKCoYE4+foYWUwPZO+ylA9ES/lp4xwPk+GHlsZqR441vPaEa0MlVM1L0GG6pHyk8L5vLxQbigL1cPKiHLAr+mn7acKpWmCMnHCZAbSfFTTA5QrU/KCfLB9krIy8vqKjyvn4Uq4TaOMcnS16Wi/oFxxsX/fpql6MB3059B3lOz5lHAe6bKewCsuJ3CEix4tJO/1AuU2uaHGXj2k43dqPCrRwBTKnMd+bpCJV0TKUwvl8YP4ICH2E5p0I1/QzVIqK8ZtAP1dwPaG/opf6LeYPG3/sn25bCyQ/sR+wv4awoS031myYXqxSb+OZXlzIcjMhyD2cyH0N/a9cGzH9chryIYrf8xPkJPGVZ00fQ3XNPNkqJwiPZSsDEvkD3mpRlaG6qFhGidPD4TZvOTpAFmMp/k3Yy1lmHKhjFCfduzNaweRTHvRNCnX6GYphpl2WDoPXXw4zjcVsH0B7//FfmF9boPPp4TxhCnLEOAHgTAY6EmENymkgLzjCzAcMJjHIVxJC1X9PDaVasO1QSih0tCBU2J4OI9KtXLVz+OQrk2ffqQfjm2aKpfpmDCQxlW+tKGWkRlQNP3IG84XytBzOTI0DsOL+EGBV/lBeXpUk1MkI42TytDy47HJByjVI00jl4wMy68ymL6S5VMK51IZNo6ei3ojzKTTUFI5UabJa15cmwctx0rlmRkY0XYN8Vj5w+CnMtSf6hD1CPF4HCYLlRXlmrSYnp2ATbqWKKuIQhql/AU3nJ+SkRpn9tiGK/LOW7IGIhc45MfFjXDOksabXGTTjW7Qjboa41d58vKcIj2vZM/9ncD+ZAxfJd+2y8cCbeu2r9r+pn3L9rHowsARl7KM3DyyOpDCmGKJY0QYJ1RuSjY88uUcI141GRo/lVGXHjn5SGUUUZ4MPRdlpHENIaySHspvecvqwRB5gp9jZ5APsvUfj42BG/lNmiBtf0o2bkYXaYO6uixn5Fxo0E0Av4XBG7lc1eW4URpPWowePVrCSpYwLGMsCWM5+ORTTnZXXnVVENW46HXGmXyirnXr7JOpeCq1Fd6zJpOdFj4LKhRg0SCVF65hlQY2yLXQyrPhaRwrL02jUpqpTD1O5RehmsxqyOMHGkMGUIucSvzApJQFMDnLo5681KNXCsuLNNN0K+lRT16s7DyZefmBmxduYWWl6QB5aeUhT3YerDw1lPAkPb4UiXEOTwnjgzn9+vd3F118UYhZGXhLQ8/TTuP41LZt2/gqRY5beMgjrJaAME7puNUQ1FI2CLflkcbDsYbRL4M+/fJ7/fXX+cXBP//8MxqRfzVQhvPPP7/bdNNNWYaAbVv0y49/IdyeB6xfgbzlhVfjqwWleXMC2xbmTTwwg7b1+eeT9pYGbV+xbZlXk9EAEp1Vb1t/eXXZkPpV2dZVfyUUpZ/Hm4alvHpcLV17vkgGUIsOQCoDKNJFj3G+kh5AkQzAyqmENB0gT56FyrRutXSsTPVXSwdQuRxXZMzhXRzYk9JPsK8WbzBB/3j88ccZr7GBr/qhD7VsibE5vNpP+hD6EcbkjMGrk0LJ4D3FXXV1Exq8Mom0btO6JoNXjd4iaEHbONUqVZFXuUAtFQzYdNRflLbKLJKdhteaB6CSvpMqp1b+xtChSEZjlMXkLs9KMhoL1XSxOiCuHqd8elxJXpofPa41n5BdlO6kIE8G08oZdPFQgzd4+7k+F9Vq8K7mepzqX0tmjRK4MEiwFQNjF1enwwqIjlm1lI3qb/NR5K8EKyfyiIMVjkcffdSdeOKJ/AwsxvyGGuRNBeiEi4lDDjnEHXnEESxfLb8MJYavwvqLUBS/XjkoW+iLuZIu9g5K+8Lr7kCff/aZe++990LsymiIwat1B11t27B+hY2Tl7eic/Y4j68IeTooapVTJGNS+MFbqRxSNGU+gEnNSz2wMirpVIR6dYWLfgHCg2SwL9FH0Dcw9j722GOM19jAVwbx8Qnfl7AYAYPXj83oR4UGL65UT+l+shi8VwdRjQtr8KKD0yoPHZz7+DB51GHwVkJawZXk2HP1VjJQS2OqNw2VaePmhVWD5YFfXQ2rBRrfoiE6FGFS9FDUow/Q0DzZsoNfeax/cmBSyyLlryTPQmXbNKw/Tw7CKsm356rJKoLGZVrhdhYv4nkh3zCDFx/JOU0MXgygGEhplMh4BcMkb8xKDV6bF4s0X9TZhOWdrwQ9T5d/Xt7pp5/u+vXrR506b7ihu/+BB1znzp3d9NNPz/hAJdlF+teLojRgjC+++OLu66+/5idz55tvPnffvfe5WWedBYnHMoxlaoxeRTUd0/N6nLoKe5zqjWNd3cUFFdsVXokkkzra1hdffOHe/wsM3sZCUVk0JD2Nn8qsBJtGPXx5gKxJldFYaApdVF5aLwi3YUX+WlCrzioX7l9h8C644ELsQ+g7OkZHgxe2ZIg32aHFreXOglLKQb0VNLlg9WqIjvXw5MWtlT9Pz3rSrgTIaSxZtWBK01tlWHm1yNX4RVQLao1XKxoiL4+noXrZgRUylGpFY+qSgYiA8Rz3hIXBnMc0esxxQkhf3ZQUeeeUapEVz1PHECaGPsKuvPJKGrvLLbec69ixo3vu+edp7GLy+eWXX9zPP/9Mgr+INM6kUp5sUKdVV3U//vij++mnn9wOO+zgPv30U7ftdtuKEelXUFHGcGlk4jjsyYv5DXViyyQl8hXEsXWgKDoPUllaxtRH5QeqFSpfYdNJzymKwhsLjZFuqn9DdVY5DeFXntStFZpuSrXCxlV/PfyKVE6lY0VeWEOhaVSjvxoV7XI5WbiHF/vcTul+SpPt4T0TK7ydVuOVrF0x4WpJS//FNb4TDqslclWrG6HTK41aCrlSHCsvlZ+mlQcrW/2pq0jlA9XSq6S7xaTw5iGVV4+sPF2AhuQFPHpcid/GU+Tp0RAdUtQqwyKVZ2WovyjNScmHoki2ysnTB7B+K0P9eWF5qEW+9SsqybTI40UYSO9e4Ys/WG3ASoNf4a19D+9qnTq57qd05/hkV+DwxTV9iT+2YumWBr0zBf3VVaR5Ut2tq3q/88477r1333Pf//A9w2aZZRa32GKLuaWWWopppLAyMK6PGDHC/d///Z+bbbbZGH+bbbZxRx55pIyp/nmIED1CQoJP9MQSahMjTe+VV15xe+y5h9twgw3c3ffc484991y3/fbbx3LEq+jkgMeWgC+//NL95z//cd988w3rd4YZZnDt27d3yy67rJtxxhlL+VHH8Kb+FLZcARq5Yd60d0a5pWH0GNHli5o/t4/2VLTCq+1KH+DUOwe1rvAWnSsKT8vAlkVeuaSopAvQGDKASnJq4QeKZNTKDzSlHkBjlCegclIXyEsjT26taQGQqX0E/QL9hB+EGDOafaSpVnh1Dy/HZulDXNmlTen38Oau8GJg8JmrPYN1QwpEBzstbxQS/PHqXfx08eNxllCY1l9GWHmRgs47p+F0sXoQ4mp4Kj+PVJbKIcngV5iuScOet/JS2Wk6eZTGURmW7Pk8qha/FhmgWuMVUcpvj+Evkl+JLw0vOqdUy/lqcUAarxZ5eeEge87Ksn6ltF0pFclIz4HIb/pDek7P23MqsxpZGSTTV6w8SwwP+uSdV4J8haaH4UX9/IU4PEWvP64FiJ9Jk3pBb//ZTOhZetG511vTVv1K6Xt/Xhji4qGygw46yM0777xuxx13dDffcjMfgHr//ffdnXfe6fbaay+e23PPPd2///3vqJNNm+mLf+gVQznYr7nmmtwmcMzRR9No9E8uS5ry4yplIKvXZPmZ9JD+cssv53r16uXe/+ADToyXXHJJXDllvsT1K7o+7Ntvv2X8pZde2q2++upu0KBB7uWXX+Y+ZTwYc+qpp3Jf30YbbeSuu/46N1om3JhmDavCSmkdKS/qHhdS1C1M7GwTgadexPTUNWHxXAizLmDjULeQN/VrP4KOMSwhnkMc6Zs+L570vE0jJT2vcatRymvD7bGlovg2rBK/UqU4qbwiSuPUyqdUS/xK5+05lZWSjZ+pzyptwcaxYUXxLWm60r3pl3/eDbD+xkZ6UQg7Fj+AfqzwovPywY6QIayAYKX35JNPdkOvHMrIjY0zep7OfXHeGvcrvFzdDd+lx564sgdAoLi1wU25SZF6N6dgUxeAX69YWBCWQjp6rFC/lUc//7w/hoXzFlae+m1aGg5Y3ujPivPw0SMf0BgyUlTkB+qRARToUYlfQTmToAdQTUZN/PR4J4MadGhIearflmMqB+2QbUoh3lpk6LH67bFCeeFGYgKlMD0PWN4ok3+lNGJ4AWI6iew8UBcB5NMVuRjPYBzRGMWdKxD2ko0e4/pf0t9d3Pdixq0G3HI/6cSTZFxqGfftYhWBq3DYI4YxC6sIGLdkvMKeS7zLlAMvX8uTzUcKTBAw3o4Wg/TZZ5+lwQtjd5555onlY8vpu+++c7feeisNQqz4XnjhhVzNlEg8DwflsNZaa9FYxsrHvvvs43bffQ+G58m0qFTORVBZ9fKmOowaNYqrspgTkM/h3w6XcgzlFyYyrBpdfPHFzP+WW24p+drdLb/88jyXAvIefPBBd+mll3L1t3fv3m6DDTaI9YGfbcOgFNBRCc3LzpdoV6PFOPd3Rv0qFtL55JNPAndlIJ+zz64rvGZ/uBDa1LTS5vSdqJwPzR1PwJZf9EfHezQ85iH4U6hMWxb42fIpQkZuKjqwWX7rt7rk8iuCHhZ6XCaDHu8Qhq1SPoBcfkVgraaH1aeW8shDoR4Jf5GcjC78K7VjpTxAXio7urYgU4RTKjvalNI39A7I6D9HuyeffMJHbGTgOYA2bdpyTObYHGxJ7UPR4MXVdezAQUGsKHzx+ed+m0Mwgqk4bgvC5dcsxrsHH3rQPfPsMyHJ2nB6z55utU6rsXOzgwvR4AUFBe3L4tVaT2ErTAs5htEfvKGiFfBrpWoFQjwGVIRpejwXktX0KSeIsqsi/qrGp5mmp7yUCK9NQ0kTCoAMukG++hVRZuCn38hQfsDyq195gGoy0vTVBSJfkGH5gWoyUn5FkR42bevPk6MylB+w6Rfxq2t1AOrJi3UtbJopP5BJH5ToAOSVh7o2zYysnLwovyX5F1eoeBwQZeFnDDi04/heW4mi8SIvRJq0dBVA/pWlA1flAkwLXj0254pgZenFfNyuNRZjmH944pIBA1zffn0ZtxpWXWUVd+LxJ8aBVMcqP6jitlnpwQi+Q1gIRi/KyV6w4xiweYCeTz/9tNtll11ouB133HFcCKD+yAvdEFkgR5QFYMUSRl///v25T7dLly4MV9511lmH2yKWXHJJd8ABB7itt97ayzSwx7HcC8o45bXQcylvpfpSnlQuVrAXXHBBGo0ff/wxywNysDr9/Q8/sJywTaFPnz58nRmA81ouRXj4kYfd4Ycfzm0SPWUOQt14udJ+AyvlCCmgG/WTP66ES/vlqj4upDAXih/tiXMkLqbEj4uXz2XurAXW4MWrlOKcGCZs3JJFe+K7UfFBCOgMZW1WQ/GhbdANOmu5cm4CGObj6TmF5pmlCC/KBX3bzoU+QjmCKJQPkMoG0nKN8gKgE13qWPJneIyMIn7AykhRSQ+rQ+rGdI2b6gAUyUhh9UjlWBmWX/XI1aFcFQiiLPDpuEuScVHD86ByQzIIyKYZT3ikx5oWVoh5ByRs+0HfAD391FMhZmWg/SMPGDf9lzVlLBV7kBd+gdg3MO5K/5h55pml34RFU4zHwdDlR4wkrIUkzj28UA6Grr9F469a1cDFfl5V1Hdo/71i+EGXXX65u/W2W4OKtQEGb6dVO7FT6wTiOzxe8+MnEOzhjZ+lC+8eTKEVFitOXHhRmbaCS+eCP4AyWZBevl2N0c7OeElrsvLphosGDUNajCdu1FtclevTkmMdTAKlAL+lFCmvlWHjT4qMPDkpimQU8aYyLF8qA7B8Vo5FJRk2fjUZeXIUymP5UzmV+IFKvArl07aSIpUR5cA18VUHJQvlI7HdliZ0ygOlCHLYN9BXRKT/alkIV8M3QCSX0hCyfUWPkQ7TM6CuQWaGwiCM+ByvRA7SVMMFUFFIG/L9xfrYYPxOiKtwAwcN5D7eWoCBFKukSEu/GqTjg/ZjnMODYUcfdRQHV12RQxx1ob8OJaovVh/33ntvN3ToULfeeusxb5GqTEwAzmHv66677sq3MWCfbjjhVll1Ve5theG72Wab0eBFeCGCTqWyTOKa4/ScHgZWQuUQ1p8ikTWfGLErrbSSe+GFF9xHH30UDV6s+G7ZdUs+0HbssceyXBWaVibNBDj3808/ux132pF7m3GhgHpCuJLGU7AeAmG1GK8b0y0VSmyLcEEyuY8c+Yf7/fffg4TKwLw3hxq8bbyhWzJ4w1wYJvW0LaFtKFRH6+exELevwBX99DzC6QbEvEO2+LVty4H3h3DG0UYsECmUY4nhwU3LFK76LVJe9SssXzUZllf9Nj7yorDhGtfKsLJs+oCVY6H81WSk8hSWr0hGSgwvqBfUO9usPYa8cGxBWUGe5i+mg58mETyatgXTDeN86ZWQJYMX7wGvBW1Dv0ebhB2oi6B6xwN33NTPvgLjFheJpt/YN5zQ4FXluBKCDgvlREl1QbgFaI1ca/QOHjLYDbv55qBibejZoyc79+1iKH/3/Xd+IhGjFmWPq9x55pnXnXDCCW6ppTq69ddfT3QZJ1xpwfrKwoMZr776OgcC5kUpVKpdRQJZaEXGSUvJHGscQPlVFi4QEMSKhd80KptWmg79TEf8wcDWNBRRRpBDr/wshEv44CmXoemrjCJ+uhVkqByVQW8VPRgmbuQVWD14HGSAV2FlpHqoi7ZKf44OdEN50h9cy083GBIWkR+OST9XD7YteivqQdfwA5QhRCfhVUCG1SNXhypyKskAwE8KA5MOigirpQ1r38ADULZNazrKS3lBNuSyn0B2OE7TATQt/kQc/Ihx6qmnuKeeeopjEvuPEGTD/de//uVOO+103ta6//773KWXDnLDhw/noAcgDYwR//rXPGKUHu3uuvtubmtoTKyz9jp8KwIH3bCtAQM0VyiCvujzhOQLq68bbrihGzZsmFtVjFMtK/Hgj/WiZZOWkULDYYjh9v6VYjivssoqLFtsG4PBu/baa7vNxeDdaqutKDdFqDKWcx5s2uoVDb2bI1DloP4UWo95SOW3X6B9NHj/++GHNHj/HD2a+dtkk03cUXJRYdsGoWkWpAHgHGjkyJFuK5G13vrrc+se6kXP4ecjC4kuyCf0Q7v97ddfpW3d7883EqzBizudmP9uv/02biecf/727pZbbo13Dj7673/d/gfsFzjL8ccfI/nxjtN6nMZyVN1j/zNjJ8Jtudv8Zy7qwhxly8hC5UR5dH0aAOTRhaNpJDKAIn6goTIYVkEPf1ySQ164KK+EH4AM5eexkaOIOvgDymmwjMDPsCAj8vMgO+ZaOSrD1z3G9NIYj3bAX4hjYfXhBY8AD/c+9NCD7ldp/xhD9aILd1m6dNnEHdztEKMDxi2f7rXXXuOGiH2IC8W77rqHD2DC4MW2rVqA1ybSNpS0OJYaA3YacdXAVb8avnZVF7oinOUkBqvk3w+qWjjo2HCt0QvD1t4OHAPDNxi9AwYOdDfedGNQsTb06H6qu+HG692+++wng/OqfKKWS9BilcOIvP6G693rr7/mLr9saFzCtpWpuO++e12vXme6J598mudPP72nu02MaAyQ9QKVctxxx7udd96FhWONURwD2jj69evrBgy4pMHp7LPPvu6QQw716aAi8AsGEiHprLf+upyw89KAjE033cydddbZXj/omhQP6m7pZToKf1s5yjZqADIOPPAgd9BB3Qpl4PVAm262SUUZZ5zRy3Xt2pUy+EtkoHFjkK4kY+jQq9wKK6xQLgMeKYubht3Euq0k46GHHnZzzjlXqTwTPXr3vtBdfsXluTJQVmjXb7zxH69DqkfAEUce7h5++OFcGdBhgQUWcHfeeTePtc1AjuKNN95wu+y6k/DntxvI6Nevvxgo65TroB4pjyWXWiJ09PIn9SEDezWPPvoYyoj1GgUJREaXTbrwi1ANbcNXX3WNtK9lfN/EL0yKKfbee0/33HPPNTidCy/s7dZaa2332Wefuj333MPdesttfKrd5gfj07nnnkND5ozTz2DfOfHEk2noQSe9tTbi9xFi5PZjv8L+WGxraExgz+zlQy7nOGaNXp0glACMq3jQCvt199hjDz8ZSb3oxRiOkR8Yw1jBxbiIh7OwtxfjpULHJDgPPfSQO+HEE2Q8fJIfcYB8vNcW5QBDCAYjgDcIYE8rjOHffvuN7aQeaJrVUE0u3nKB5zb23GNP13mjzjE++tGKK67oXnzxRW6tQ9vpdWYv98WXX7jBgwfH+YAkP4+J7rHHH2f/RJ7azz8/ty7gobUI5RH6/vvv3RprrOFuuOEGXiAgDHUDV8H6CITyxyvUUMaNCRi6s882O128i/7mm4fJOPG622+//aV9XiLHt8RVLd2/q3qW6n4i30xxgIyzK6ywouvW7WD3zTdfu86dN4xx6gFk77Xn3u6www7jHRy2WwmDEaznFccee4y75567XcucdMZIvPX+HO/6vP8OeUj4gd3IWGutNd2PP/4g9Vo+nmGxC3MU5iqVQUPM8ANLLrm4Ey1NeyhhvPwuuKA3X8cHZOa64Pn4o4/c5lts5qS38jgFZNx22x1ukUUW8Xrk5OMRbpk5zLUozwYxcZwTu+bNWH95MgbLhTqeLciTAf7Ws0ztXnj8dfJrPvLq5e677xJ75tgG13+fPhfJBfPq7qWXXnTnnHOOGzhgIMdMphHSwZiMu1O4U7LkkkvF9NFPsDiBuxywDzbffFNpI/eJwdtK5tnRnA9qwUwzzhTtPzV248ptWMWlYRuMYLulDITFGH0WjGVuDV7M33oVoJQavViehmGAY6zywo8XuMNArQennISvuA11Vw29miu96Oiw/v1y9LTua+msqKzbb78zriBBYQsMhkcddYTr27e/W1YmXuRh6aWX5MCE5fN60VIG32PE4N19t92ZHgsJDSoYvQqk00eMp4EyGI2VyqsX00qlo0+++eY7kieRHfKGNPDDZAessPQSbqnWY1zrqcob7Pfjpnbt1+jizj//AvKTN5AC9bbssku7F0+8MoRkcenTt7sJi8ziDjv8iAy/lYE9dPvvuoe76+ALQ0gWp9w5yHXadmO35VZbRd60nrAit+9JR7jvlxEjJQdzvDbcXdV7gExwK2V0ACmuv/46d9+993J1Jw+4Ar3t1tvdXHPPndHByjjnnLNdm0FD3Y4jx4eQEtBauszZ2r326uvszCrD8gMHHXSg22yOZdx6i60YQkr46Psv3XG39XN3PfJglKGkwEXcIbt3c2tOtXIIyeKFCa+5k3p3d+uuu16Gn2TaxjJLL+UeO3qgazttax5bXPPCfe672adyJxx/QlnbwA+AnJWWXtx1aD3Wtc1pX9Xw+qiWrv9lV4key9KgQ1mlfUUH2k4dF3PzthznZp467COsA+/8Oa07/szz3brrrOs+/ewzMf5ucieddDLPaV4Uw26+yb3wwvMcYNdcc3X3xBNP8dYwn0bGQ0YyZuHWGi7Ahgy+1C23/PK8WG9MrLnGmu7SQYPk4t0/zIZBF88kcGuWGg6hTmC44a0L99xzD8vKj8FYifHGCwzhO+64g+PhXHPNRfkw1HFu/fXWd5dfjou3NqxLLWsAfDAYjznmGL6dQQ1e9B1cmOItBvvvv79bf/313X333cdVYBjHgNZdCpVv0yHSY0UiR+Va+ZhfYMhjr+4PP/xA/bC/FoCRqgYvVq7xEBhWp/E6ozlmn51ybNu+4oor3JlnnsnPJeNiCPnBO30x8UL+lUOv5Mo/kqcOQqgHXEwMGTxEDOXHMnWjQH45Pwphu8KvIu+RRx4JZxsHMHTx2ji4qI//vPUfd3rPM6RMvndnnd1LdBSDN0zacO1dQuinOp4oFzp413Hfvv0YFx/x6LJxZzfqjxEhpdoxjczFe+29rzvyyKM4/1qjF2WnZYS0jzryCLfCzfe4DcSwTfF466nck62mdhe/+xZ5LAHio7vOumtxq8qcc87JY4sn5OINdXewGPGVxrOOHZd0e7XYm8cpHp34iDv4nIPlomrjLL+Q4uOPP3K7dt3FbdtiuxCSxS0Tb3FDb77CLbzIopEXZQKoHg89/KA7fdDxrsMu7Xic4vkew92rr7wW8xH5jR4DBw5wd7w51M2/YemiVjHyu3Hugxt/cc898mpGB6RPEUbOXXfewYuRMX+OCiG1o1Wbtq53n4vdGnLBjAu8p595yp111jkxTU0P/iOl/rfaamte7CMQizpoi5tKf95n3/0YZ/XVO7m777qHdh52C2CcrgXt2rWL7V6NXbURYfC2DGOsGry6z11dlI0dd1namgnUGSateFLIC/OkS8RcMsYxLGpcdYoFXi9g6J17znlMk4Oo6bjjxo13zz//vAzyc/MYE4CeV/rgg/fd0Ucf6Xqe1lMm3aUlnp8ogODUDXQayPavvglGP24pYsUlhHmSBKS8EL8hUD5OwkEm0wKZCw403anlXx5NBRmiA/Mtk3jkNwSDF2grhnwuwfCWVGAQZHQwNFH0aSmNKZdfqI3IoM5GBtJNZUwQpSdOI1rnkbQFn49iPXDev08P+73LCe2Rt2kkLijVAQS0kWJrm0MIn9rUvcpI5aBPoNzyyqJty9ZumqmmzsgAj5UxXvIo3c9NI5fveYTVBS2Lsno1bWNa6dBIr0gPILdtQEaQI80ot23VQujxlM26D2mI3/YVdEQct2gxkWsmeXKqEdMRWShTrNjhDoyWJ1br+/a7mHTe+ee6yy67zG2++RZsCzAg7r33HvfD99+7X3/71Y34/Xf366+/ua/F+Hvggfv8nt6GDhQVgLaOxQDcCYOBDV1hZGtbQHnAxeIBHrjq0aMH9SDhnLjYooW3FDzwwAPu4osuZr6wLxfGKlZShgwZ4l56+SW3zLLLcDsYy94QDF1saxj5xx9BK+jl6wU64aE4vKYLxiPKCg/MYbwFYeUlj/Q8thhkSAzSXEri5cnHhTBWWbFHF3jiiSfkgvNV6gnE+hEXed5tt934HmJ/u9TnB/k98MAD3SmnnMIPVtx1111cccLDe/iMMgxI3HZdd7113f0P3F/Gu+2227rfR/zunnziyRiWEsOFj+OB+BsdphnCaOhx6mluuummi/ME8q/wbUVdTwjo07s3DTbcDcEEz3PQPfA1CCID+UeeY3lQbpBNkhRkHmopKWE2SamlnPZjhfDqOGEpjEctxO5AW6ThUkZY6vT1RhlGjp9D/TGA8bNwXEV+ivQgTRRdK43N2D4lmsg/tglDJT1ExjRihE6bT4C2P1A6v4BQd3m8JCkKKaryfLActW4CMbWGA/Ixdq2z7rrulJO7l6WHcx9Jm3vr7bfcPPPOS7tt6NArZPw5iosSBx7UjfMl8kl54jLfdWgGfhq8eocDfmkTauyq4QtDmC87QJi0l2j0SnyVQdsWQtXgtUYvItjIIH0Qg5Z0aIggNNa6QWNtgrvl1ltk4O/tTj21uzvs8EPdHnvu7vbca3f3zDNP83aK7dhKuNrv1q2bO+TgQ90666wrYegO/tykAjqxESIt8WvlMg2lxkorNiCfFmSyUQS3OmCglXRVfcGvVA064KRGWomqy6C+FWTUogeNYpCWheGFKwEhZjEmTPQTUiqjHj0Qr5IMlHk16MRoZSjJvxCrGEyL5VGuQyyPKkAcbRtFFxKTCojI6ytMM1JjpOP7JMvU5GWOOWZ3c889N1c/Z5ttdjfrrLPyjgTGsROOP1EMxvvdfvvv6/bYYze32+670o/tT/POOx/HM1Gv0YE6x3YvDP546JflE9uDLx8kjPfnYlsCVjFRp36C8nWLh8uwUnnbbbdxjzEMY8TBli/sD8bbBa666iquYsKwgxHLsSQQLgyW6tjRPRxWIrXdw8UqOQxqPCgHw/y8c891V1x+OWnoFVfwwTklbHnYaaed+IaKTp06cY+xErYARFp5ZbeyIRzrObz+C1tMLhtyWVka11xzDdPAw2MY07ENAZ8YRhlYoCywCr7D9ttn25mUGd5QASMXBj6+1Lb/fvvRiIaRC0N75513Zh622247GsLYwmH7FgBD+oYbb0C1+LqwxLR8vWjaTQFNDxdq2OJhoefkn3cDNAz7JLGyeMklA/yKv8YN8RoK5JttC/mGgRXyj/ILSbDN1oKieUplVgPSiuNZGFdVhsqpBvBp3RcZvtUAHdCXQakOnuqXoXKUIKcabHlaPv1p/5gUUK6UEcZT3AHBHXeMpVtt1VUumDu7Lbfs6s4//3x3wAEH8o4SFh2eeOJxd/VV13KMiDoFNeDyWMJrhdqiflsDFli9UVsydoORC9s02qfiSlzdCgEbFivS3raFkStQg5fH/JOrCWvswmoOLt6eQKNXBGN/BOI1BAMGXsJbRBt27uz22mtvd9KJJ7tL+g+Uwfwad1Gfi93CCy8SYvrCwj9smj744IO42oFBjOfwQ0Ey0qQjtyHbXyOlBRlMx8iMskFV4KMpj/fDo52IgVUAHtswVUaGqqCxZFBOHEw9X3RDvEpQGfwZGZFqkBLzUSRD/qpB9YgTK1l9GPzVkV+eKoOBNQBxbfsCX70yKgH5szItAdY/SYAMobfeessNHnKplyv52nijjXkbFLfTYLTsuedefL/jmNGj3cztZnaXDhrC28G33Hyru3nYre766653F1/czy27zLIyjvnX3TQ2oBu3ToQVXj+phnoIdYo2AcMOxqr2U/7Exaorbglee821/MDEPvvsQ4MOH4w44vDD3Y033OC6d+/O8MFiLOK29TXXXkuZpbbmaGhixVTLX9Md+cdIGs4wLnH7eP31NxAjdRW32GIdXIcOQost5hYXF/T8c8+5gQMHunvvu8/de++9XC1VwoNb8Vj8WI1Wuh8kYaBbbrnF9bmoj1usw2JMg+mENDoutZRbd5113Prrref++OMPPqDy88+/sLy80t55883/uHnnmZd3/JAPJbySDRMuFj+ul3LB3PXkk0+5U7uf6g6WsL4XX8yyg1GMvbq4OMJ2D16ESLmjPESQ23jjjVnuHHtgTJk0fBRffyxf1NdkgKQUfJWBV4JeOvhSaeuD5YJvNuoKeLf0Cqv6aaqYfx1DcODDcBR+4kd5Dp+qhftWzICUhk/dwuE+I+LFMhSSf15OIFx8YW7/9ddfyggPCtq4/Ikr/2IY/MAI/CaW00g3SqL4eV3zQxblDTRafnn8oD/lBxlRj8BfOoYM58aOmOBG/zI+l4CoA3kgwqcdSZDH60l4x3oeLU/waPqW5ERSp/URJKAvfvjBB1yU3Gbbbd2555wvY9N17t577pUL8tv5vElXGYORHsYitBvcceve/WShU1yPHt3daT17sI1ccOH5vND3utUGbJHDvnW/uGrsTx6XjFw+yBZc2qwSV41du9VOmmQJmQyHCHwVRGCkILhMNCQshHj1YtSokbza3mOPPWXwW5zvUpx99tm5alFUIHhK94gjDufm6G4HdQuh3ji3aCVXuW2mn6Fu4t5ag6J60QaFPb95cqoR+LwcOkFeJoDOOHFeGtnKPTOinN4f3VIaEd5c4SESyGbLTv3Ln7lbLvV7bBjPKyAjD5//9G0uP+jO158MsTxUhtUDaPPTn27eJz7LpVa/4utHJZ6MHkbOyy+/5M7sdWYu2VcApWkrENxvxmndOnO2KqP1hcabdpwnA2EYmA+78cLcsug64Bj3+58jY1wLHGrQz+5Xd/f4h3NpuPu+FFFQVifh3GgxqFY5e69cPc594GqmX1QOinHSb14paF/VaMQEDB0+jWrpTJjYwv3nz5a5cqrRT+P9SizSwMok3r4wevSYIDnAR3BffPG5jB/TcUXwgAP2d8O/Gx5Ol3TEwItbcHPl7BVsDCAdbFvxRi7uwGBS0gmupMsbr7/hVlh++RBWCocBh88G4/Y7jNZddt6ZESBL43bZuAufM7jq6qu5RxdbHpTfX2RNcB07duQbIFJILBqW2NuMbRU4jr9EF4y3WDlBmaHdY3wG4Mfkgj2nOAeCMYlwEPbMqh9pYH8uBPs0NB31+/3KeMPGoosuylUZxAPUfefdd1zHpTsyLssBZSl0c3gzEB7Mw8c1UHZYHQWfT8M//AaDF/t7TzzhRO5f1lVLlbdA+/Z8OBIrw0xTmYW8LO/3hor4JwPsnFY0v2I8PO20HlzZbd9+gRBaAt5ZihXfBRZehNR+oYUzNP+CoIUMSThIzs0w44xuBmknLA8By8AAx0q4szJ09hncwR0XIHVbCtSedJmEz7rjtoHLA6K0TJWwZ/vue+7mw+833Ai6IdK7773LLR4WYMt6HG2Hx+d4zD0+52PuMXEfm+PRSL+2/oVtPoXNF4wkJ1Hy+EE4h3avPLZtKPA80tjvpnZfXT21+/Iq0FQZUh20TrV8LdA/f3/X5cu4bZzr0L5jiJkFdFECUPfTiawFF1nUtIFsOyhvA74dtJXyxioqZGFPOR5ew8OQs82OveatS/qHtODiwUK863uLLbZwm2/eVWhzt9mmm/NhWdiPGM8wNtQD8NEWlR+NV9igUgeevD2KOoFfV3V5DJtVDN3IL/qSZFDKlLhmAIBfSQc2Dn4yiPEtDUIYrM477zzup6sHRx95FB8ywZU7FbFKBULFDx58GZUXJdxxxx/H9C6+uC8zRUQd/YoTH6gTvXjLQHSdMAH75zARSJwwyHk2c/WDghQX6ejDcyzQUMAsNMSTn0ghr6aDfSyxbDCQig6Y8GxagKbFShPSdOLDLEEPi9EycXOAl58fbMPqAuSqviKDcnEVI20QfnoQTeKjvBBdJ12GIyDIQDliUmMe2ahK/ABWqJBXlQHeVI9cGUCQg3JBW0EdgBcyog6AxEM+WA55ekg8nUDLZITziIvBhPziZ3mC38iADrjVrOWZ0SPEmyQZAtQhDAHyh7woOwAePOypZZnyIzJvz0iZpmUBmYwr0LaRqRMjA2WpdeI7fikfKkdl8BablC2NM/YZc7tN4oHAQ6I8L58fi5E0/AUwnh73bZvx5IcyYjrSBm2fZD0WpKP62fT8h2im5ZhzyiknuVdffZXvxdWBDfWBFUI8T9Cz5+luRRmY8ZTzA/ff72aaeSbGQZ/EqiveejDbrLPxCXg8DDPo0kFMs7GwysqruAvE8EI74lP30q7hsk5BoV5hpA2+dDANOUDbEow+rFZjywG+CLa0GK4oFpSlBR5Ew0NeeHUjPp+LNxlY4OE2nMetfcSFYbzxRhtx+8Bxxx/PxQY83IUVWQXaCYByB7BySCNS8gCg7aMsAbY3AXTGedTxdHjwTXhRF8gz6hn1DaPz/vvu820DhF9IA8Dcce2113ILBCZp7MfFQ0r4choMVKx0zzTTTFyd1bYM/oO6deP+Xzx8B74jjjiC8rTtANAPfky2yAvuDD4kZYsPcdgHsbBPER/uQJrQT6HjJt6ti7d8/PLzz1ylakzgyfVZZ5uVbca3G9928EaKfv0udkOGXB7bOkl0/urrr93+++/H/dh4owsaSWZsFFf7NsJwC1/7eRw3QlyFlhvqSOe+MiMC9RfiAUwrpEsdgmzVQ6F8efNUhOFXuT64NP5QDtuPsIs/hc9Taa6yclQG5eTpEeOLV342D6kM1SNvXIUA5MPKUH4g8kNWUV6CjFrywf6g8iAsAPHTuucYLK4+V1BJNmRCPraG4c4adM5HCz43gLtFmn6Ui/SEunbd3A294ioZK2QcF3sC/boW4EJax08dU5XiWxowrko7pQEsbTSTh6CPoszgtdBCYKEFovECksEPryXDQHfOuee4yy6/jHFrRXcZ1Dos1iFMCP5hJCjOB+Jk4tJMzDnXnMwEJshffv2VE50OwAB11MIVLxoIBlktaDY4uqHxiF/5WBhC2mi8kSudWjs4KjwUIOIoJKVSmWAilYEQ+qER+Ym81FCplIANUn54wA9+HUh0AGPlmAaVly/v9/IArVCvX6hckIXE186n/KmMvEGEsgSMG3h40WBIUdIB+fAyMvzeU6iH8pNUD//PuwLGDTxFethBhAMREPgjwB/0YNsw/JpW3mAWEdMtrhN1Y3kkMvL4QZY3w2/KE9D0/IDl5SAvDAtyymT4f94NYLrCp4aoDoxow7xoC3XFRAIvfmjDvFDD3R9zZa3lb/uK5lH7BeTj9YaaTtpXVH+k53Uv9RnIRzuHvljt1fpDOPoRjDvEV1nI08+//MwLDH8rEsaFXGRKfBjPWBltbIN35ZVWduede54MzqWBGcQHKzGuybiCvGCv6/XXX08DFGAZSX7weWAYsfhsLrYEzDXnXKV6MMD4i9cjYS/svvvuy9eMWeD2MG7jY1VWDV48qLYYDF4xkr6UMBq8koYi9n35AdgygBfE4w04GHfxKeP/43aExd1zz/3bjRDDdj0xFD/77DM++Ib9stALK3R4QhtbJv793HNuoQUXcvPM8y/fNiQNtueQBoA3LFx73bUsExiu2LJhDV58gQ5fXttbDF+2g9Cmd9t9d17A4CIBH/zAXl0A6bANGeCBtkMPPZRfaMM+aGyl0MUG6II9iWefcw6NbsvLMT70D1y04a0PeOCuMYH5DPWEdtK6NT617z88gfA4oUu7yTM60S60vcOJ/Q19A7qL386H6k/7nQijLpDJeQ8kaeFC1rqatkVMT1xNU48B1RVk5ykrR/WgrOAqv8Lz+7qvR4bKQVylPD2UH7BzBIBzygtEPaQ8gIwMuMy/uKHvKkV+lCN+kCH/VA5AGZHHy8jTA8R8oK5CvYAUiAs+jufiou6V7NiraUXeIAd5VGNa5aflpqRQv9dd5Ju0Me7rtxteeuklxquGef41D+/aoC/oBSEXC4XQL/yDan6xDP2D7VZIYXUDSmdyoJmxhamZj4Xh8143sNcDr5zAU7ft2s3C2yLYsD+bXOninYQYAGaffTafpvyQKQygyLBmKuoWCPpALw4KQui40Q/jkscYNEqEjsxzNHARN/CEvDINbdxK8lMdkGYpPSEOSiEtHGtaTFviSzwaCNA1yFf9Y37UDcQ06AbdjMt6MDIYFkhl0xiBTNZZngykZ/Ib3Iwe5C/JUP4oi2ElGZZfZTDPiYx4nuGIH2SY8Eg2Xl5eQllAhkSMMpTAi3DVw9dPtizYBkKclB9U0s3XiZWRIernZagukaIOpfhlMgy/5t+eZxj9Xk6aD5KVoWGBVCbDox6+TNhGw+2i2IbhyjHCta2rkcs0VEeRJU4kle3zgTCJw/4R5Ji+gluw5f3SpCe8kIOBDuMGxgsYbXD19TU2Xziepd2sjIMxZRYZZzBQap4Rr/EhA71OdkKcOOEG4wIE4BYtjPYUuKuFVUsYvtg7V4QPP/yQ28A+kDgYE1P8/ttvZbeBAeoQ/AAnROqrevtJEIRyXlcMWhi7iLPllltxny8uHmAYwmhE+HzzzSfG5s7MK/bV7b7bbqwTyFqtUyc319xz8RzTUDI/TroKnBOZFm0kf3+YsgI/gPkA2yWQPsqjCNARDzOijWDiXXihhcOZkiwY73wzguoXiMgLa0RIaw0+D22XsS2DQhz6THjszyCJUurLQtL+Oc6hX+A4+NN+p/0bfS4atogDmUGWpqW6cIyMVIrDeEJerifqInFUXipTKZ4LMv2YUDoP/nQ8K5LBuEEv1cOPIQgvl6FySuGlfKgMuJoP1YNhQnl6qAyrB13qgfglPVSHevTQfDC+8tufhml88IMgA+UhbcCPs37MjeOvuDr++njQ1/OW9CoRdaY+4g8/+mPa4gbS+DXD8EKWHse0g3yVqxTPmzCGB7ERmZOpkFBo/pwoHeKgG9YLYS3JhUwhuJ7SMH9MCgULQsWQtFJIpUr1xmeoPPHzliIftrOEMKwmI06QhXTgBj+3W9ANOqEhiN5shCGOTy8MGrqZuiAd6hgMbKal/JBXmC8fNyXqEuIxLsMR1xzDJWV5SzL8gJgrQ4jlXoMMUCqDvPCH81p+ZTLC+TwZJA0TKpKhZWFl2DxYGZ4qy4i61ynDn/dyYnwJjyTHNg9se+JaSvmZvm33ITyvLFQewm29WhnZvIBP/NIm4fd9Qdtstg0znOc9r0+n5E/7Co7ZV+Q84pEXJPzxJeFl6WgY+ov4yWvSAUFfm59AtmwQn3wSznKCLghDXOhZ/7BVFbCHvHHrjUYxkTLGEs7DhUGrr+OyRtTKK63EDyfgNWT4KAaMtRSIP0DO4SMSeI/vYostFs6UgA/GwBDMgOn7tOBiywFcENIB0eg15FeCcM4bpgwP8T2vN+qzefXyMzJRHoinx4bAgDuFcKEdeC3wsnusIgP23NZbbcXVaxjleF8xtnHk4fbbb+dFz+OPP84LnrRcUA5ffPFFeXkJbHrwpro1FqQ1+h/nRJ0fS3Mk/OizGqZjSem8kO1v6BuIw76CPu37GvoF+lPeHMXz7N++z6lf+7jvY0hH01JCmn488X0OhL5YorT/cvyx/RfHeo7keawM9mHlRdxkDIh51ni5OvhzqgNlqRz4NVxcn16eDMguybB6ZOTUKIMUZFh+kJYxxqs8GSVexNFwrRPfDhAHYVqnONZXzOaPvbYthDR04UEJerLcvV6abiTVV+JCf69HaC/CVytEPPsF8kY31LWGMVxdiRzD0E5zKJMyAhTqt5ElDR8GTwyD68PrAWTgR+VDBugGhVGQ0ZVCU7/vbFliHBSExEEB24bA20CouECsaDmnLkn82rlxrPw+vaBPQqw4pI1jxBcX/PSr4WsJ8jUduORTXk2rPF+xIYd0qI+4Sswn/Mg/ykHOl/HLuRhPKJUBniIZIDbc0HFURpmcECfKEKIOiBOO82QoMQxxGT/wiF91UDkqg8fiWh3yZKT8DNc4oMAb5YhLHZFOiFOuQ+BVCjIiSVjUhXqgbCx5XRmngLL8IX0OGMEf8lJJTjxnZGT5jQwYsJKetlGEwY9+osRzjJvtK15PyBU3hxgu56kL5JJKfQHHmXRCnKhXjOfPeTkis4DKypl582n7MIkHvUSnxgZMNjUGaSGFsBT4qiDeS6tQQ6r7qafyaWe8sgxy8GpG3EZXYFUYe3axhQEy8LAW3jeb4uVXXnHLLLNMOMoCxiXSw8opkvWGqJI3Ukvkw7klRI7Bh3C44KWL/PkD+n0c72apZPRaat2mDfP4/AsvOHwbH3Es8BDfK6++yrgW+GAGVp8vvPBCvrUCe59RHgrExzaMM844g69yw8Nr+qU5C7z9Y7555818vc5C9Z8c0CYZ513Oi75vlebbQPJj30b/MsS40sfZB9hXfH9hv5J+xP6NOUpc29+0j6vBgzDfp3y/8WNHkpbo4dMM40kIL6Xricc4F8aiyCPy6fIcZHjeGD/wWxnsy8g/9fEyVI72e8YLfNRZeYPLdOAKRTlM3+uQiRvkqIxIIZ7yRznmXE0yTF5K/F4P8Gs+QJqXGC5xPF+QZ0jbgcohn4TFNiDHWu927I3tQKgUz5/z5QsdxJU2pHppmlEvIeqEfPBc0JHlUvu4q21d/QrjjcieL/DbPbxFkdDZMXjEPSByRawPreGJ6LPPPssNHjIkxK4NPXv05Lva/H6l0j63wn1Log8LMehlB6DMgARdwzF01kEap+V/jKcu5LHRiNhMo5EAPUactDyy8v2qDspGj21agPJbuZoOEk/TADQdCuSxl6sQDu+GBpTyK1RGEJMvA06ig/qtHnQMPwAZys9j45IvoJoegY1yrAxA5VAXMyHmyqjCHzz4y/ADeTJSaD68v7IMhZWl/EFELj/dIAO8qS4sByNHZSCM8euQYd8Ba9s0Q+EJUP68NoxjnMdxCshQubq/Ly8dTUvToc74yaHKt+cqQeVxhVJcfYAK+zDxDAIenMA7YPGe28YE3qt71pm9+MQ4thpgXMPDfXG/mRh0mCxwCx7GF4wtjHEsD+gs7tHHHOOuu+467s999JFH3a233co9rRgH3377bbfhhhtyTyoMPHyoAB9lsIAcvPLs1O7d3SlCuoe3s/BhK8Kmm21GQxHvrcUrvbTOYEzj08t4UCQ0H1QO60eE4j/1C8FMB3nEHIDzEVpHoe7oD3U3WsodBr1+7hdx8NlwvCEBecSccNCBB7mll1k67uF9VYz3zTbf3PXt25evMsOtV79C34JGMvb47rfffm7BBRZwF/buze1w2FKB7R54RzM+7nHUUUfRqIY8PCQGvXSixieLYYz3PP30qKdC2ymez8AzK7/88jPf79uYgD7QGWWJp/zphraDdoPtfJwLeZHoDQqUG/4iQj1pu88QLjJwwSL+vH5nwfzLLxoooGBUwa/lo2WUSSeQ/MMf5QOQRxdOwm8R+eEPY3yZDDPXVZRBt8QP5Onhj70b0w783k8no4fy89jIUUQd/AFlWH6FyimSQVf7m4rL0cPWi4XqAeJ7h3nB6etfLyq1XVioLE2DcjUM/hAn48rPAnoiLVJ4zglj8Fjp/xh78bXLWoC9++gfrWgjlvoFbEb0C/aPYCvSTqxQFsBfZ/Ce1tN1ksGtlAHv0uANT9/xisJkRDOjsBWlfrgkVKwEaYUqMdAiFI6S7dyx8JLKBFChkMcGBNkoH/UH8hHFFRmKKBe/MGjjGFAdIq/AysrIFSCuukop8ngryVC/RSrD8gPKW8QPWL7UBfL4UzkaH2WuqCQj5Qds2koWymflpLB8lWSoPw+pDAvLa2WlUBlWlqIWGcpTasNCYaCKMq3cICNtw/EY6cgvRSoTA2BZOoyYTSsvD/yVJ1EGiEIaehGKvqnGLh6ewPfcBw4a6Pr1bxqDFw9fRcNFKDV4MabhITK8xmfrrbf25SI6QnFMRvvut6+7++67+Qnhbgd346oszuNtBTDU8V5cGIcwjFNg5Rirvg8/9JDrLGlYgxevCtpn333dHLPP4R597FHe6sfbOlCo2A+L8ZcP/wVZpkayED1x7rvvvqNOGLtTUEZSWZgz8Plb7KdFeeCWKgzvNddYgw+4XX3VVW5BMYaxOq0GL76+hg9tfPzJJ+78886TtuYNXo6bIh+ruHgQD2+DOPbYY5knvKYQRiTer4vtH6gHPASI159pG4LBi/kLD8uhrLE1RNuZAmWOiyYYvPrQml2Zbwyg7LDHHDq2aVt6aE3fgqIPcuukrqutAHTV/kM3VBhqR/sW+xlIzlWcD0O+IVP7c9HCD8pQgbToiiy24eCnfEHksfzBTaF8ylskoxK/utVkqN8i5cmTkScHgN/Gz/On8fXYhgN5vICVkxLDc+qFbZj1LyHh4sfWk/yjqzKIRHYqPxxGT4ZXYNubvhWC468QLnqfefrpELMy5plHDN5W/k036A/sG3iLCQxe9g0/rlayEy3+MoP39J4weDtxYtAOjqfvMOBqJ8fVLJbXMTAhM7HQg6uVTwQvKpkVG4gVG+LBwfkUqEQ1PkGxc6Ny8RfSs9C007QYzuNsWpQFF/LM4MH0xMj2J72TgZFj07Q6UY4yWxml5CnD8gMqI7p5MoAgJ08GwPSLdFBI9DQfAPyTokeKScmL1aMWfroVZNAtE+BRxA8wfcufJ0KiV9MBoCwVkMoJSUJOHBADyT/8xTQAlQPxtg2zv+Ac/kzaCi/Py4LfpoVE/OlSOgpqDnFBpqan/iJQbnDtmydg7PItMzJuYZUBe2T79uvLuI0FGLy9zsAKb3WDF3tKjz76aL7mCvG0XHQ1Bl8X63HqqXwFleYdcWDIwbDDKi+g+QUwPsOAxtsItuza1W0gRi4NXjEoO3fu7DbbbHPudd1v//0o6/PPP+eDaDCmCCMLKKsVOV9eU8XI1JKpM60/PEyG1WYYwUcdeSR1x7lll1vOLb+cGLyvYIX3VV6gdNlkE36pDe9htwYv4mOP7+GHH+7efPNN5gvli7LA/AKZ2NKAuQVtCiC/xMErNT8VHS67/HLKiW05gBN2mPdo8P76q3uusV9LJvMeLkDQTtrYFV7TbrjXsobFn9RFZVkjF2Xjw/P7nebdLsbQxRwVkrPpAjEtQVn6Acpjy9Z6icACnVJ+BeREGQX8gOarbj2MDnRz9MjIsLwWwlazDO/JIrCkZQE/y6BABw0HIp84tg2QpB3gNOTnQfWiOJMeENPOCVPYsUxfiaY245jRY9xTT2Xf318EfUsDDV5LNfSNPP2CpfXXQJXyk6coCoKfSofORr+4+Elcmxn4ldhBTSf1e/XsniVQOJZwJX++dAyKaagOaVrhmHHgF72RXpSdlxbSIJkwrlT4gcTqbmVreDwX0mJZaXlpPBM3ExbCLX+UkaaVykjCKUNIZVBOJR2UTLjqobqoPxM3T44JVz2UlxT0oFtBBss7xANfzEeQo/GK+EE2rTIZ4Rwo1m1K4XzKrzL0nI2bIQmvqIPVIydNDdeyIK+2S7bXbBuO/SS04di2hU9lUY8Ciuehp0mHF7OQacIiSbhe7Gb6khBkxfyadBhu4tC4RByEQVcJiyR6NwXyxNq01I/VW6xk4stgLMMQDgd+vLD9xRdfdB+8/7674/Y73M3DbnbvvvMuDcCddtwp8ljCl9EwIWC7BI4jjB8roNjzCqMfq5pwsXKJB7d+HzHCjRw5ivTHyJF87VeGRo3iRxpG4bzExft8sRXCxhkVSeRI3EgmDt7Vi+0TmLRQT1idxRebdKIE7GSMVWe86xPvEEb6mjfNN/jx4Br2Nj/00ENc+fZl94E75+xz/DYG/IQNcws8eJ/z1Vdf7U4//fSSLHQI+un4MKG4bccHNxk0PQsNq0QoQ3Utab9jX5E+EPtR6M84tsSwsJrM49C/ivq3TTPVh2THIZDIiWTiZ86JP/KasSzKqcZvzmXk1KJHyl+kg8ZVf0pWhtUhyNHwNL1IJlzTBS/rQ1wNT+NEfhsmceBqG9D6z9SzhsfzSqXzaVyVrzpZ0vM2bxof/lqhBjrGBRAuPOmHS2Pah3ORQFwbV49t2F+2wntGz9P50IG/mvWrIRioYc3TcpercbtnSQtKCYBe1q9QP1z6S6cIO5CKNPV4J0lD3SLENKw/iLfpAEzLpKOuTcP6Va4iPQaq6afI47XI0yGPp0hOU+hRCfXoYcMs35SQl0oyGkOPovLIKwe49BtxuX0FEC/kKCny0gPK0gh+FZ/2FSCmZ5OtIt8CYTpuwdUtDbrK0K9/P36gojFRtKXBb9XyKxJqxMOIwsomPpyw7777uQMOPCDqrKu88Ptyys8fgD3KAN7YgC+K4fY8jFqs4qwnsuN7eDt3FiN6M/Lddvtt7uWXXqKxh3cub7b5ZjRC8ZUkfMIYK79S2O5PMS4xyY0Y8QeN4y+/FKP499+ZPzwgdnHfvm6fvffme3CxLxfGLN4+gVeGYf8sDOJRMkfgYTR8ZWnEiN8pG/uE8fYEfBL4WDFk7xDdL79MV1lbuOVXWIEyX3nlFRr4WPkETjr5ZBrng8Swxx3BvAkU7cYGZc6LH8fQEW/C6NO7t9u4S5coB3Wi8VDmKFp7h+DXX351zzxT2+3YWoF5T1d49c4A/JwPwx1PrGKh/dC4kIu4/2/vXKD0KKo8XvEBJMJKWDAJiDwCgUVEzyoq6ipRQFgNi4oQIBxeZgUS94iuioJ7RCCgAVZcXBMeyiNEFGQV9xxFUFTAVzwoxkWeMRA1IQmBJBAgAdz7u1W3v9s1/T1nJslk+v/Nnaqurqquvl1169/V1dVV5231wYMwC/d+g20Xbc0gm+Rvx/D+Vqg6hkcneYBmefj0eV4+zWCWAXSaB6jKp1V69uVp8m2fvl1ZSGvpC7/LTkKSr4xSnWhyiGbHtuNEvsiUoDiHF7v77LPP6GfPOwE2JLYBkcQPdYRXxOypzQaAL1rb8HwRmLvBRnjzguCoyK9RWO7GGwXPT6RqH2IEGVfvSIq7lSQpvLQvdUImlleet5eq46qkPO1uqHSstF3EFfF52PlUHdfiVqVrJ63iNyuDDzOxY/s0rfLOJU+X59WpVKVrlk8znfZyXC+t0nead7N43ZSt2zya6QG31CZSfS3EhVsd9vk0k6rjmaiBErE24sX2leK7fLy0jcP19361N9H2DDRS31JAjpZ8EVoXCRN39DbbhP/5znd0PvGMc2cowY36EmG0JJW5NDKdi+R5xRVX6GoE11xzTRg3dlw8t/z8OG4WRKf029/+VokqUwsYJWVawIemTg2TJ08OJ550UjhmypTwiU9+Qj/h/eGTT9aX6v71wx9WMkqnM/vSS8Op06bpsY848shw/he+oGkYbSb+9OnTdQrFtdfOCdM/8pFwtpByvssPEec6W+eoK0EkfxXQwzlnn6PT3CgXxBcdRW2irySMKklcbiwQryvyYNF7yC4fP4Ls6vVA5Kc6Im7hpj4opdXR4fUNK5v62WyUoSi7SCxfKrsLszbh20gfSe1a2xv+FG55Wr5+24fnx8vTVoX1V3x5mpWtSjqN26y83ZxHs2O1KkM354IQv9Pj2HWw6+2vdS6F/W0Vx+Wdix3bRpillBJWrr/tYDf/etOZbjx1TvC6dYlIcyNq/vhisommTQMGJht0SkM38ErC305ypeeSx7d4VeHNYPt9ujz/Tvd1Iv6YSLfp7fi5VMXtRHpNX5Wuv3n1ktbE59FtPlVp+5tHt+mR/ubh4/s8zKjlxq0qHVIFvz9Pa/n6OH5/M6mKb1LaLz+2ZUO3Dd4/WMiPZ9veRXgcz8tVv/zVL/VzwPPnz48Ei85G3NKjyCScEy6P8Kcce2y48cYbw0033RRevddekmfMm6kKjLBi9BnRjEQ/ifyIiJ9VIAD5Mbp4+x13KJHdf//9dQ1cRlqZUkBeLN31tre+Vdes5SUzRl+YesFLaHyqGQILeSYfphawn1Fj0t1y6606ugvZpEP63d1363Gr6C0fFoEQg+997yZ1KS/5sbwYnwY++OCDw3e/+x3Zwdf25FxUZ6KbpJ9cmHrBiDZfpvvyxReHo44+Ws9f96ML8kg6KUT2yX/1cy3Qy5ixY3UEnY8lcd68tMf58eEKeycFXXYN1zHn/rgbf3JbID8HH+b14beb7TexPKrg45k0Cx9oMVTt29AyUOXqNJ8qVMVrdc2rxKftVPyxPfLtduAlO50DLPaCT8irJELLp+KV+Iq/IL1ChpXspjgF4U2rUmwwwps3Wm3LLdqxj68n0KFUwS5ELoZm6ZqhKn6r/A3dHMfHxW/SKXyaKukUVWm9dIqBTuulE/i4Pq2FdYqqtN7fDj5tlbRDVZpc2qFdvKq6a+j0GK2Qt5NcBgP9LXMrlIqcld/OB8efI1MAmIpwjJAwRlYhhdddd11YvGSJxrXRS37Lly0PN333pnDcccfpC1nveMc7dNUGvrxGZPIjLi/EYfQ5V150e3Tp0nQ8LYKCUVIeL0LWIKMsp/azn/1M0/AyG6QTcssKDitWrNCOhHA6QkgdHQzzkInHlAgIoeEVck4cn08TsxID+yGErM7DaHKB7FowzYNpE6QFX/jiF7XjMl1Bqs844wxdfYGXzfafODF8ddYsXeqNeL6jZr7vz+/8efj06Z/W1RjI96dyvgcedFAjnvxQiuXfR2yESmSU6Okf5QZgHzmnV++9d9hjjz3D+PG76YdEWEKJR7CsuFD1lbtWsHbkRf6p4C9eOmry+Bn4tF6aofJcRZqhKm/EUBVmyMN8XBOD9+fI9/n0Xtohj5OnN6lCVTykW1TlgXSCPF6eRy5VyK+53/bhvaLq2M3K0gzYAKagsSQgUyGeeYb3B3gP4Gm1J/FdgNV6M7t69SqNqyPAkk5HhnEhvfyE9G4wwsu8Lk6+KExSTskvumG/BLmw9SMct51UpetWqvKtkqq0SFXcKqlK66UqTZVUpfVSlaZKBjqtl6o0uVSlM6mK30yq0ptUxc+lKp2XqrhVYa2kKn5VWH/E55dLHsen61VAVXgfSfZE/rlw3VRjOVjwnUWpA8lcxMgZRI5H9fN///swZcqU8IMf/EC/IjZ+t93Cfm95S3jLW98a9vyHPcW/X7j++m/pWru/mfebMG3aNB35tHwgZgsfflhJMOvTMvoIIWMUmA4hHj+W7X8lDqOxJxx/QvjVL3+ppI0VDxiltetloya4aB6SuXjxYh2ZZrk0KCOALEMoIb32fgf7OR75bDN6tIazJi7hjB6zrddHYC7LjLHk2sqVK4vPF7NGbpziEc+PPN8kBJaVLGbOnKlknRuA3XffXcLfpHOWX/e61+navufOOFeI6Jjw05/+NFx88cU6Qmtk10Z2i+1mIvFwIfn6Io+4ulj/S0V03fjGuydsdzPCa0tFUVfjhzl8e2KEK7UbC0sdeS6N+r1+xcpatc+LxWsWd6Dy6VQGKh8Tn19/8uw0n07idCpaDyvCexErD8ZCw6w+806CbK9b95werxOseHyF3mwvXrJYX6pdsGBBuO+++8L8+b/XqVi8mMoqN7fLTTqr3vDOgS09yRQHjmvtg+NvsJfW+N76lGOmlF7uKJYlQ8R4+DcEMTaUyZcL5NvtwLl0m6ZGjeEKNVyCjaHNWFk6gcaVP3schviX1iBcrG976623phQDgz4fnhAZucXIPi/j2txkr9c+HZeSned1ZJUPMxDGI3RGawtImC0iLyk0DwBR5pyZVgD5YyR333331fM+84wzdIWCX8+bpy+MQYxZIQGitkpIJoRz661H6zJmt/3kNiWWjJ7ee++94RvXXadfeNtjwoQwadKhOhWD9YR/Pe/XYeeddg6PLHpEV5LgAwqHTpqko8dMPbj99tt1agTzg/+0cGEYO2aMfkDjZinfK4X40n8wzeAGOTYrLDA1g6/FXS7hTMf43FlnhTvvuENHUHXKgiO/9A0AXXITs1x0Rf+05ZZbanwbdWa/6RsXEiueUt9CvsrfU1UznaJ7RrfjyFF0mTKidUpE+8O1LHf3rIZzzeioOwH1gCkSTIWwvrD00lrqD3lxjbLSJ1o57Xw2BfhzQd81hh7suml7cZyRdkIboW3wBIePyQwG+BAPX26kjZid1faS7MQGI7xjpIFf+bUrw6iXjSoaujVw+4IGd9E08vgpu7T8UdbAbbuTBpKfU4487/6gXXn6eyzy7yaPbvXTDIOZT7t0nRwb9KLbbvWZo136TstehQ2lzzx9t/FboVt9dHsubCM6lyvZLkYoISXr1q3V0YJ3HvAuDR9I5ITXr0BTfEEyrT6jRhjikgC50jIngqXnpG5jn4YRN7kgrqnZiMeoJ/NUGdHcZeddwrzfzNOvkTHSy7xcSCoEis4HO+7zagV0yZM5zoeyd4Pi6lVcR86XKQCQ8jcKKcfW88EJPpJx1uc+p6SWlSz4ehorO+goK8eXvIqOjJ9krfVExOpLlVvEJR3bIpaH/sl2SSfitRUzivqU+sBYp9ZqX8jNFG+ho9fHHlselixZkjJoD+YsQ9B9X2j9IV8gZQkpRpR1OTHK6spu8P4aNVqB+t1Jfek0HvBtRm0Y7UQEsqsvl4lL+7j33j921Ta6AU/C+GS6rc2LrdVPZafVTTYY4QX/ceZn1QDHBs4Ib+Nulo6Bxm0fnoidg5SpQ+XXqFFjmCIZXhxbUgqD60d4L7zwwjD70tkabyAB4T3v3BnxyRXiPocJ4cW+cSOPTcMYQ7BKSOQKlIgvUH/y8kv7ijgivNSxx557hLe97W3h0ksv1TBGgBmp5TPCxOMFNKYs7L7bblK2kZoX8cha89EDxO3oNV8F/L4ObbMRSwN9DS/fbS66WbpsmXZUvAjHRzcY/OCm4J4/3qNrCzP6+/Z/+qdiZLdEdh0JNNH808F004Vr2rStcfhz+0FDt31Jr+/IIb2QX8guX5JatnRp8dJdJ6B+6NJkkFwjuxX9odUdK7v2iTVqdAmq9GBVHfL2bQWbG18oW6d2h09zs28w8Hqxv6PE7tJe7AuFpRvFDUl4uau9cOYFYfz48drAtVNgLhQjIamQGD+d0iDlMYMGzG1pjGvUqDEsEUlKnP8YbRakN87tuu22H4fp//YRJScDDT6H+4XzztcRXh5LQ3hZQ5ZRuoLwJpvGqIOtDAA8uQJ0GkWYwPvFw59EjWEmkERs8QP3P6CEScPRgQhfWIMEz5kzR1/m2piAPrhOrM3O55aZRqHETsgu6sHPHF3W/v3d735XkF3tF4ggkhNYghUpLHrTfhNHdP1+D69f7cQRKStkl77QbqL0sa3UKQRd61rGXYDVHpiyomRX6kneH77kJazhnOYRW1+YlbVGjfUFaye0ixK0nUh7kR83gcYZuRH8w/z5+iRnsID9ZfDUbK22GyG/2Fz8G5TwAkjvRRdepKMNWkDHzP2UBrujB7lBqlGjRg2DGWBslpE9bBYE5Se33RamfWS62q7BwL6M8M44L72bEKczRMILcYkjdsVNfLJpeceBq379K4f1jYMb47ESwoQJE8KZZ54Zpk+bJoQ5xjE96MtQaeRlzVNPCel9JpJq3SeS4tt2PEYk3umgKSyWoVPY+akroj9c3YxEFX1stdXfiW7S6CVhST9EZD9vY7M6Ap9V/uhHP1oaBPFiTwLx23G9aFgiuurP9yXXYOfb0ElcUN+TXkiuEl+dx7s2LF7817Bw4UJN1w1Gbz1a+0Qb3c1HqiD++nhWbpSkoE3LXKPGhkBhH0TiC5cNvvh/f/jDoJJd7Oree++t7aZoO0Ub4qbxpRue8AIKx2c2P3j44eE1r3mNFtyIbjGHF8OG8RPUjbtGjRrNoAYXNxE3Jbo/uS1ce+3ccPsdtxf7BwMT95+oL4WNHGlzeDdX8hsNsBhiITLNCC8oOozkL1z9a2yXRIlYCIf+y6H6Ytk999xTChef6kEJG25KV2wnImz60tEZ4nC8FM+O612AtxNzzDn68zQiqz9xIXBm4xnV1W3Rke5L2+w777zzwqxZs8KDDzyg836N8GpazUsyt23daBybn/65cHPzsByqDy+uM7dpDf7FHKYzLHjooZS6O1BXeGlwm23iaK/2h6nOROElnFTmNuWuUWN9Qm2DiNoW8a5Z85S2BZ54MNo7mGAOPF9zjIQ3zRjg6YhwSFsEYaMgvB68mLD1y7fWBl4yTslY1ahRo0anWPvss2H5Y48N6siCx9QPTQ1HTZ6cCG966z4RXowuhth/ucgTM+0sEnK/iXJQfi4M4SWvd77znfrxCebvxg6HyHF/MXqLHwKrLuExnoqEG9nVUV0LTxLLoo7CwnI0I18WzH4TAuO0BbbTvFoR3Hy6AgLRZGm2t+y3X7hmzpxCf/oj/xTX8rd91nf4cNv2LvB+0Dj3hh7QYdEnPieEl0Xw6ReF7PJiDp9gZl5yf2F1BOTlyrdr1NhYQDsxvri+wIdgxowZq4MKkF2mk+GPo7txEHWjI7w1atSoMVRxwRdnhje8/g26LBcju2p4S4SX776/JD6WfnEidonQGJkC5veuElXd4K9BRAnfa6+9wvbbbx9uvvnmGCXtQ3Rb4sTtxhQFS0ug+pNrYuFRNIlC9yXIHnWVVLZAuW+J2xZmo7SIkVwf5sPln65PfOyxx+r6m6yzK3tSPi6+pWdf3F3sQ2y7ym2Fhj7StAbRH0RXZR1zedfq0m98le7+++9PqWrUqDHY2OlVO4WXbfkytbHYXd6hwG8jvBDeaGkFvtF30vBr1KhRo0YDPGKfMGEPjGiDcDniRjiI/rKtNX+V5PuNwBkuu+wyfWzICgZKDPmJa2RahZFCRpVf8uLiETmjHsxroyNAirluIkbOo6QVAypEOxaRqn1NhfysI0quiZVFlxOS8iI6ymnlF2EFBz4tzEts8VzRT6ajDH5ff8Wurep1hL1Elm5gUjm57jVq1Fg/YHAB29YMRdtN2zVq1KhRox848IADxPBuIQQoER9IEPNPdQ5qJEnyrzC+JoZ2fh8G2GZkkc/snnjiifrxghgukn52fAiZEjMnSiDT9AolweLmJFiJcJoHp4SU/cnfq+gLyeqm/OV48bixDFo+yiXbpZV6EsFE5l47Vz+Gcf0N1+s560l3AXRn0g0sPq5e02JUuRGm4fKrUaPG+gFLLcY2R1vE1kY7EdumNk6NVxBee0zlH1c1g0XpJG6NGjVqbOrAqB466dCCTMYXbSFAUfRnxncAcfLJJ+vxLrroohiQ8scpiZaDTmCElk1fCJZ0OpKaSCXkUwkmhDSRTNtnhJSRX/N3KlVpLF/VlSe3kGALh6SnMpvouYjsvPNO4fDDDw+nnXaaTsVYn8ivo/pTWPFr7K5Ro8YggidrPDWydtmQclsVX3iRzUfywrykqvA0XSuC7Ro1atSoESa9d1LYYYdXCqlMI5EihbFVNxGjDGpXk2t+4P2GPOzhhx8O3/zmN8OXvvSl0vF0GkUSe8TO/kguI7FsSCS1uk/EiGgkpjb6KsJ6sCZMQ6iQOFWhr5TSmqR8jQxXlQHibeUsziMJ58ZqDbxHcvrppxfn3g1yfdo1MOkG/vhdFqNGjRo9AjvB6G58qoaNw/amQQbapN58NtpmifB6olvptxclSsy3Ro0aNYYvdthhh3DC8ceL8YWwRbKrkoiZN7geZl+rxPabWwpL5nfy5Mlh1113DUcddZRu23FMjAQX5amQnGTatpHhKikIaSZVcdtLJLRFHnZ8kbycfhthBYxzzjlH5zAvW7ZMddAJcn02k7wP9OLjmdSoUWP9AXvButX6qfY0ZQuba7ZCb/gT8TVUjvDmAqpc84upTW6NGjVqDB+w9uOnPvHJMGrkqJLRLebvJnImVrcgosDbT/Pn4veZ3/D9738/3H333WHu3LkppAE7DqLHz+azWZmQPG6cRpAkdR6DJUVHlemqWRl1250Hcsopp4Rx48bpqg05VHfcHfCX9Oh12U5axTPS62HbVrYaNWoMDngXALLLS7DFzTN2RW1Gsr/YDrUZZi86JLxIldGoUaNGjeEKyO7ZZ30+TNh9Qpz3mua+xhev0uM1T9D8wECyp81GC6vE0rGs2NSpU8MhhxyiqxUYiuN44Zj8pZEOTySRnIRa51F8wnYQRY9hnZV1WLYvlc+XGX88HQlzer366qt1ibJf/OIXSRPVqNJpp+JRCk/XUf6lvQmUtUaNGgMK2j5zdvkaIavDNF6G5WuEcf6/PWmD/JqNUNsheBEN1otvzCXhJ24Ozahu2zVq1BhGYM3HGWefG/bcc89E1ngcn0SMrk1n8C+sGXI7WrKzTkpk+AWMM39/C5///OfDqlWrwpVXXlnsN9hxCiPPX/IbaczFE8o8bLDFH7PVsf1+629kS7ff/OY368c2WKYMFDoziYqL+sv3tZB8+oLftuNUgnImb40aNfoPbMCoUaP04xJbbbVV2EwJLuTWCG987yDeMHv7K7Yj2Q8w4umnny612lJTNa/EYFRBGzwfnhCXzyjqt8PFnTFjRph96ewUuUaNGjU2TWBQ33fYYeHoyUfrxyVsdGGzzRrr1hKmrggjDryYpXNVMcBp9LJE4CpQIlPiFcqlXuaqvvGNbwwnnXRS+MxnPlPEKwy65Yvx5i9tc0y/38O2mxK4DQxPMHOxvmn58uX6WfqPf/zj4WMf+5jGt/Py56x6iZ4+eugW3ITw0w9QiPCJYT4+8dzzz4UlS5aE3951l45GaVwpK1+xo8Cl8qd90aN7oz+Dke1eUdIB/uiJ26oM9Sr6q5cNgUKHCbbNtcn3dYM+enO6yfWUbw8F9NGNbFqd7rfeUr0yvej/DnRk6bBZixcvDn/608JwyCEHRzLLVIUXv0hfeGWgIRJeIbvJDusSimJr2dZ3A0gjLnmp3X3qqaeKs2p2MTlxRO9uIbupgTcI77lh1uya8NaoUWPTBMTlwHcdEN7/vveHbbfbVkcReHQGoY0rDwixVYIrBjeRXx1xwOgmMaOrhtc6BNAwtQ0kq2wECPsrtjq89rWvVWN+zz33FB1S0aGQp+UrfxwHFMdz8YYarA/qI4l04p85c2Y466yzwg033BAOOuggTVd1zkVY0lNPENXbcSPhfSE8/0L8Cin9I+si33rrreHOO+/U+d3PpU8PN0QIBSTWBpJ0BD/mZ/kisc/9W3j6mafD6tWr08G7A+e7+WabS51lmgqjYPHGC/LAVBedQsIUEa0nTj9OZxszTFfypzpFf6pTuSYrV63Ur8H2AtoNI4mF3tK0G51vjg5lPzoENmVI/UNQb/xrDGq+oE+QqHO9wOvN6plOX0rzas02IdoGE/roTbZ/9KMfhZkXzAz/LjeyBx8spDfVWSW0icwyoKA2FtIrbmFzdaSXa2f1W47mCS9odrG04aEccY3w4i54aIE07hP0M27b77B90UBRnnf5oVQ9WONfBYZGZdk4kCpryf1b+PW8eXoj0gteu88+YaQYaKpBrAuxIUcv1TP5FfW1KsOug/rkX9x+5JGHw6I//znu6BLjxo4Lr9rpVUnvJnpV4vXQS9Bwa3SLdMFKGCEG88Vhyy23CuN33TXsvvvu4cKLLtJlwI444ogw5Zhj4ktqboTBiC+P2eIIQ/RjoIuO0oy8XrcRaoSbQetPAoRq9uzZ4bOf/azOG77rrrvC1ltvnfZSDWJ+KqkOWAeci+5L7lCCdc6g6IssTP+i/9RTTw1XXXVVOOyww8IFF1wQxowZUzrfXAeiFXV7gfZtckwdDUt93Y+lg/7oaafpyBRfvnvD61+vBHcdI79Cep+HGD8fCS+lVoJR9K3pnHx4ypebnSeeeCIeuEtwrqNGjlTyYSNeShaQREa0btq8aKk7ls5Ddb2RgqLZDUS8JujuhbDi8RVhzZo1KVZ3QD9bbL551JvXWRu9Aa+7oaA3q3MDrjeR6EbyiYuevB3UX1bXJKBwLr/iijBnzpyw7777htM/dXrYfvtxej14Mc1sr5JcjgMRlrxtm5s4ysOLa2Q24uUvf3lPV0PShUcffVS/G86yPOeff742bogWjZlvimMIVGSbitho3JJBp5UgV0QzbMSVajBQZRi1ob/wfDhp6ofC448/nmJ2h/NmzAg77rBj7MyppFROqTB6Z0WF8ZU1dRZ9KutwgJ1zqnd2PXDteui1kXo/9xtzw/U33KDxusXB7353OPqoo7XxesNRGNpmxiMr37CE6cDQqS5cuqjKqOMrxPB++8Yb1eZBPOP+8jHabTeDj+c7SJbeYhoDRvvII48Ml1xyiRp4D9IiSqBTNrqd6gXAD/xxhhK0fSW9mN+LNL2i/X3729/WqQ1Lly7VT47ygsuTTz6paavQq070uAnMLXzkkUe0v6Nj5gZlu2231aeg9H9Gcl9gFFjiMKKLbZBMor1QN52LnIfZdUbbmCJB+Zm20Qu49jyhUEIgN2g691HsCDaefRAHbvBiHaHeRH0MlbqCzlDb3xzHsBH3ZcuWi+56GxlnFHHkFvGTtcUj9KQ3I7xKpmq9lVDoDYKb6a3Uf4lEXaU+y8E2CUfmzZsXzj7nHJ0qxMtq20p7W5WeeNDn8Zej6jqMmDFjRqPVtkNSEA0Vo8vk4be//e26PAR3r7FxS8OWBs0cX+b66pxf7hqSUqOSrWHX6AWqOtOj/AoDKhWV0YTjjj9O7tB6I7wzz/9i2PFVO2rFtBEqbdjJtYoaO9dYoSrq1bBCUZXF42/sMB5s8xb5dd/6ZorUHf754EPCsVOmiPGQa+EMCNegapSBizHcr8dAwIylGdwo6HpEWLBgQZg//w9h7dpndQTB2oS+FazXQjo/6QhJQziwmxOD5W+w7dwuQtj22WcfJVF5GhDLlYRfOgbHtfg+zlCG6cb6j2Zicf7yl7+EW265RUdHsYs5cn200o/la3H8scAWm28Rxm0/LkycOFHrAV9/U7tMX5hc+kHsgY5Eal9o+ZT7RSPDxIMkQ5ZXrlypo8a9AFLGABWkLb7ow1OIaEfMrhDH6rfVlVb62Fhg18D0qfYXnYve0Cs663VkHGLFjQK6gsT5G4VmerP2vrGjmd60jgqPGCi9tatvUWfVdc2HqV/kicefCHfeeYdO74Ff6pJj2Nxk78wlJeEg9o2aSRixatWqeOYOVQdXBYmYcmJjjg3YSK5VNBqoKa7o/PXuNTbsIr8aXcHrDL/pFP2avjHsk48+KqxYsSLF7A7/ecFF+gjdKisVVJf5KBHeNNqrdbBvXTG02rcpgWsRBb/Vd9qFtAW5Jl+/8spw7dxrU+zu8J73vCccf+xxheFAMBa4ca3BOAfPG10wXHQ/mCjpUsQMp+pb2oE9OiNcb0bS4zT22UgGaYlfPFJL4uG3m9lFC/dxLS8VTLwewoU5sfhDHdbWzE87K8L0z9piI453W+mg1T7S+/12DMtXPNIXxvJomXBlm34Svw7+EE4a9af0FFqTi5vS4/eDRdj1xx5bERYtekTjdgvIGqPcStw2E7sOAYHAqS1pEJBo12P9VgyV+tJEb/CQRYv+LH3hYylid2BVAL7i5fVmuvOj4maHlewOFZ2BTG92g0V9W7RokdS53vXGYKjpzeqa1bdcb7SrlrYp7dN4/MTVdJKH2daGP/WDsh3jiatpNAshvCtXphbrYHs9RCnm0EhRFBXLlEXDNtEKlxRpcUgHOS4yqdE10KPBKiqGk4bNNrqH8L7/8A/0XFn/6+Ivh5132lkrKXdkjTuzhphh1MpUVVcSWlbiTQD+esRrETs26rdvD5ddfnm4+pqrU8zucOikSeHEE05MRgPjEQlvlNhZMZpYNHTRuUmNAUDSI0bT9GsdmxFd1b8ZXHHVjyvbGj8RZf61uza+Thny+LZtefHTP9t2YvG8O5SBfkxH5vcCfxRf9Kc43jWw3V99lPIWUcf6xmQHitFa9ccw9RPZ0iZXRdPGNJ64MZ2BJwu9gBcox4wZq7bD2xElIBAR6q0IgxqoBD8YKvXF9IZrhNcG3hYuXNjVV/g8mLY0erTcKCS9eeKmT9pS29fBIEeyhgpyvRnhRW+sjLBs2dIUszt4vaEre6m3qr6ZTdWK1wKmV1yVZI9JZzbXiC/72bZ44sg5avK+I7yWMfB+lFK4InY3a0rTioZIZfON3BQaxeUjvxq9A71GwxoJr5Ir2WYqyXsnvTcs75Hwzvrvr4Zddtm1qKANktUgV9qZW4USd7ijqNOifx2RyTqrr86aFb729a9pnG7BElhTPzRVroFcB66F3DFDrNR4JNdGd9mmdft2W6M3YCgNWs9lM7rqKeq/f6TmO75ogImjGcR0KS+PfLsdfD781I/hxyUsEwvflFC0N+1TogDrjxTiWB/j4wwU8vyKY6gbj812USYNL++zdOZaPE94bcTt0UeXhvvvv0/jdgseMb9yh1cWo205AbGbM71ho97Itq8/GztUd9YXiq7wG3F78MEHdd5nL+DF0G3/flt9ulaswJIRN3SF3uzJDhjKerM+64EH0FtvU2iYPrPdttup3nx90/6KmwanN1/f2sHiWN3UnwSpP+WhdtnsIo7+a2DE6tWrY4tLsExbwRqnviglv0i8yne0uk1ccWN88cvPQFiN3tDQf6qsGeE98N0H9fyCw+WXXRbG7zLePfqioWMMaeh2ZxY7dCqTusMcdj3knxoM6j/TfMx4XPKVr4TLLr8sxe4OH3j/B8IpJ5+cDEcUroUZEDUaiWhxbcwY1Ogfch1644pHDau4iBptJLULI7q+A9R0yd8faF7JoCu0OOn4STQ4297UYP1HYQudWLh1NxIa3bRvoJEftziO+uPxS+EC7we6LYI956d9KoQXuy62ZJnY8/vuvbcRt8KtAtefFx933HFHtedK3LAjEDZGKcWm2/QbbAnxse/iGTJ1xziGnzdNX4jeHnrooWLuM3GiqjrT2+jRo8N22wlx034wEjf6QLXBEmbT/CJxo+1rYxyyelPCm/T2IHr7619jvKSn3K0C586Nwite8QrVm94kcKPVpL55vZXAMQgz14FjmI7Njw1OAcW+HBr3ySefLJW+WWQD+znhQkRBAKWx3eyOFmh4gvfXaA27JqazqFcR0bVWVkeuWP5m4rsm9vwY56orrwq7jRfCK43aKit3ZFWPIqRg2sEPd9j1kH9qMGgDek2Se/GXL+55neojPvjBMH3adL0WfNzAjEjVTYjd5bZrwzXaI9ehbYt2qfZxW8T0jSjRTaOtnhAbvL8bSC7Jl6CHjmH+GM38myK8LTQUfY+g5DaiFLA+aaDgy4G/shzRE90MFmxPRtWGQHjFfuhKDbqOL9vrdCWkxjJnjGRCitPUwXRe1EWpAIWdsJFJI21qR7Dxybab/aDeYt/BUKk+6K7Qm5HdpBP/Mj16WyuiL9QnvaHbXG+0YchYtLVOb+iQcO0b04ADOhPXbnTBJqE34RL6EZWK+qZ1khsz2luF3nx98xwir2+mN7VVuY1rg5KOSZ8kbjbPq+mHJ0BVQgqm1YNK4gSoq9viJEWU9jnk2zU6h+nZRtMLckVllIp57oxzwxNPPK5hto5jXLaMyt1X91ZZILGnnjItjB07piC8+liCCuoqabwzS5VMwoY77HrgovN8dOYHP7w53PLDW2R/2mfXQq9NTOehzY7rIUZkv/32CwcdeKAaXIyIjS70uSbuJqSq3dboDpW2L4VpvednUdjOxFDyy48/RfmSN0cjeQF/jGZ+4P2bKqzteNfEb/dBp/rvEHKU5Gug8rgV8PGMtGMbeMzs7QguZA3CYQTEXhZnwCPmY3lFe27EzIib2XRbhacYxEg2XSqN+jWHIVJ/OO9O9KbEjW1PeJMtNvjpYV5vnvBid3O92c1CzGPT0lte39gX9daob6Y3vWFKhBfdmN6svzK9xRureJNldsv0FvPtC8KrdJuHVcWxPEesWbOmlLuPLEVIPgeCUgo55eimzLxrfkO+XaNHqG7F4SceKqytBmCVFNcat/ltTpMRLgOXO1bS2Lht1JBHX0asMJL24hqN2yqs3tVRHyoq2LBCuibcWKgB4ZqIYCjiHbNcAxFvdAlrGF2MTswHXZrhYKpCcacsRJdroTcikF6uGdcrPVaL8bkmci2G+/UYJJhtbOua3UxOr7D8DH7bH9P7vTsc4PsV83u3aj/w/g0Ff52K8ohjdsSkGOVl6prYcda496QEkmI2xPLBhpC/2myxEVWjuuYa8TAbovWXvyFQj9rpzWwsfiVvFXor94fR/hZ6SyS3pDd0hh99aTzsLiPqQ0NnoJXeYp8F8RU9tdCbr2999JaeLORk19e3yCfSgJnTXVG2HE2COwF8KYQQ/h83C3WyEcX2YgAAAABJRU5ErkJggg==;horizontal=0;" vertex="1" parent="1">
          <mxGeometry x="119" y="560" width="590" height="117.16" as="geometry" />
        </mxCell>
        <mxCell id="379uXCsdajc4Rn9exaL--3" value="" style="endArrow=none;html=1;rounded=0;fillColor=#a20025;strokeColor=light-dark(#6F0000, #ff0000);" edge="1" parent="1">
          <mxGeometry width="50" height="50" relative="1" as="geometry">
            <mxPoint x="340" y="550" as="sourcePoint" />
            <mxPoint x="340" y="490" as="targetPoint" />
          </mxGeometry>
        </mxCell>
        <mxCell id="379uXCsdajc4Rn9exaL--4" value="13" style="text;html=1;align=center;verticalAlign=middle;whiteSpace=wrap;rounded=0;" vertex="1" parent="1">
          <mxGeometry x="310" y="540" width="60" height="30" as="geometry" />
        </mxCell>
        <mxCell id="379uXCsdajc4Rn9exaL--5" value="" style="endArrow=none;html=1;rounded=0;fillColor=#a20025;strokeColor=light-dark(#6F0000, #ff0000);" edge="1" parent="1">
          <mxGeometry width="50" height="50" relative="1" as="geometry">
            <mxPoint x="300" y="550" as="sourcePoint" />
            <mxPoint x="300" y="490" as="targetPoint" />
          </mxGeometry>
        </mxCell>
        <mxCell id="379uXCsdajc4Rn9exaL--8" value="18" style="text;html=1;align=center;verticalAlign=middle;whiteSpace=wrap;rounded=0;" vertex="1" parent="1">
          <mxGeometry x="270" y="540" width="60" height="30" as="geometry" />
        </mxCell>
        <mxCell id="379uXCsdajc4Rn9exaL--9" value="" style="endArrow=none;html=1;rounded=0;fillColor=#f5f5f5;gradientColor=#b3b3b3;strokeColor=#666666;" edge="1" parent="1">
          <mxGeometry width="50" height="50" relative="1" as="geometry">
            <mxPoint x="149.8" y="550" as="sourcePoint" />
            <mxPoint x="149.8" y="490" as="targetPoint" />
          </mxGeometry>
        </mxCell>
        <mxCell id="379uXCsdajc4Rn9exaL--10" value="17" style="text;html=1;align=center;verticalAlign=middle;whiteSpace=wrap;rounded=0;" vertex="1" parent="1">
          <mxGeometry x="120" y="540" width="60" height="30" as="geometry" />
        </mxCell>
        <mxCell id="379uXCsdajc4Rn9exaL--11" value="" style="endArrow=none;html=1;rounded=0;fillColor=#f5f5f5;gradientColor=#b3b3b3;strokeColor=#666666;" edge="1" parent="1">
          <mxGeometry width="50" height="50" relative="1" as="geometry">
            <mxPoint x="520" y="550" as="sourcePoint" />
            <mxPoint x="520" y="490" as="targetPoint" />
          </mxGeometry>
        </mxCell>
        <mxCell id="379uXCsdajc4Rn9exaL--12" value="24" style="text;html=1;align=center;verticalAlign=middle;whiteSpace=wrap;rounded=0;" vertex="1" parent="1">
          <mxGeometry x="490" y="540" width="60" height="30" as="geometry" />
        </mxCell>
        <mxCell id="379uXCsdajc4Rn9exaL--13" value="" style="endArrow=none;html=1;rounded=0;fillColor=#f5f5f5;gradientColor=#b3b3b3;strokeColor=#666666;" edge="1" parent="1">
          <mxGeometry width="50" height="50" relative="1" as="geometry">
            <mxPoint x="149.76000000000002" y="750" as="sourcePoint" />
            <mxPoint x="149.76000000000002" y="690" as="targetPoint" />
          </mxGeometry>
        </mxCell>
        <mxCell id="379uXCsdajc4Rn9exaL--14" value="27" style="text;html=1;align=center;verticalAlign=middle;whiteSpace=wrap;rounded=0;" vertex="1" parent="1">
          <mxGeometry x="120" y="670" width="60" height="30" as="geometry" />
        </mxCell>
        <mxCell id="379uXCsdajc4Rn9exaL--15" value="28" style="text;html=1;align=center;verticalAlign=middle;whiteSpace=wrap;rounded=0;" vertex="1" parent="1">
          <mxGeometry x="170" y="670" width="60" height="30" as="geometry" />
        </mxCell>
        <mxCell id="379uXCsdajc4Rn9exaL--16" value="" style="endArrow=none;html=1;rounded=0;fillColor=#f5f5f5;gradientColor=#b3b3b3;strokeColor=#666666;" edge="1" parent="1">
          <mxGeometry width="50" height="50" relative="1" as="geometry">
            <mxPoint x="199.8" y="750" as="sourcePoint" />
            <mxPoint x="199.8" y="690" as="targetPoint" />
          </mxGeometry>
        </mxCell>
        <mxCell id="379uXCsdajc4Rn9exaL--17" value="29" style="text;html=1;align=center;verticalAlign=middle;whiteSpace=wrap;rounded=0;" vertex="1" parent="1">
          <mxGeometry x="340" y="670" width="60" height="30" as="geometry" />
        </mxCell>
        <mxCell id="379uXCsdajc4Rn9exaL--18" value="" style="endArrow=none;html=1;rounded=0;fillColor=#f5f5f5;gradientColor=#b3b3b3;strokeColor=#666666;" edge="1" parent="1">
          <mxGeometry width="50" height="50" relative="1" as="geometry">
            <mxPoint x="369.8" y="750" as="sourcePoint" />
            <mxPoint x="369.8" y="690" as="targetPoint" />
          </mxGeometry>
        </mxCell>
        <mxCell id="379uXCsdajc4Rn9exaL--19" value="38" style="text;html=1;align=center;verticalAlign=middle;whiteSpace=wrap;rounded=0;" vertex="1" parent="1">
          <mxGeometry x="340" y="540" width="60" height="30" as="geometry" />
        </mxCell>
        <mxCell id="379uXCsdajc4Rn9exaL--20" value="" style="endArrow=none;html=1;rounded=0;fillColor=#f5f5f5;gradientColor=#b3b3b3;strokeColor=#666666;" edge="1" parent="1">
          <mxGeometry width="50" height="50" relative="1" as="geometry">
            <mxPoint x="369.8" y="550" as="sourcePoint" />
            <mxPoint x="369.8" y="490" as="targetPoint" />
          </mxGeometry>
        </mxCell>
        <mxCell id="379uXCsdajc4Rn9exaL--22" value="39" style="text;html=1;align=center;verticalAlign=middle;whiteSpace=wrap;rounded=0;" vertex="1" parent="1">
          <mxGeometry x="80" y="604" width="60" height="30" as="geometry" />
        </mxCell>
        <mxCell id="379uXCsdajc4Rn9exaL--24" value="" style="endArrow=none;html=1;rounded=0;fillColor=#f5f5f5;gradientColor=#b3b3b3;strokeColor=#666666;" edge="1" parent="1">
          <mxGeometry width="50" height="50" relative="1" as="geometry">
            <mxPoint x="50.000000000000014" y="618.34" as="sourcePoint" />
            <mxPoint x="100" y="618.34" as="targetPoint" />
          </mxGeometry>
        </mxCell>
      </root>
    </mxGraphModel>
  </diagram>
</mxfile>
